<svg xmlns="http://www.w3.org/2000/svg" xmlns:xlink="http://www.w3.org/1999/xlink" viewBox="606.023 123.926 428.953 347.199" width="429" height="347.2" xmlns:v="https://vecta.io/nano"><style><![CDATA[.B{clip-rule:nonzero}.C{fill-opacity:.2}.D{fill:none}.E{stroke-miterlimit:2}.F{stroke-width:1.5}.G{fill:rgb(0%, 0%, 0%)}]]></style><defs><clipPath id="A"><path d="M679 184h249v195H679zm0 0" class="B"/></clipPath><clipPath id="B"><path d="M984.977 297.523a164.61 164.61 0 0 0-.793-16.121c-.527-5.359-1.316-10.68-2.367-15.965s-2.359-10.504-3.922-15.656a164.75 164.75 0 0 0-5.441-15.199c-2.059-4.977-4.359-9.84-6.898-14.59s-5.305-9.367-8.301-13.844a163.79 163.79 0 0 0-9.613-12.965 164.55 164.55 0 0 0-22.801-22.801 164.45 164.45 0 0 0-12.961-9.613c-4.48-2.992-9.094-5.758-13.848-8.297a164.66 164.66 0 0 0-14.59-6.902c-4.977-2.062-10.043-3.875-15.195-5.437s-10.375-2.871-15.66-3.922a164.16 164.16 0 0 0-15.965-2.367c-5.359-.531-10.734-.793-16.121-.793s-10.762.262-16.121.793a164.16 164.16 0 0 0-15.965 2.367c-5.285 1.051-10.504 2.359-15.66 3.922s-10.219 3.375-15.195 5.438a164.66 164.66 0 0 0-14.59 6.902c-4.754 2.539-9.367 5.305-13.848 8.297a164.51 164.51 0 0 0-12.965 9.613 164.49 164.49 0 0 0-11.957 10.84 164.55 164.55 0 0 0-10.84 11.961 164.81 164.81 0 0 0-9.617 12.965c-2.992 4.477-5.758 9.094-8.297 13.844a164.66 164.66 0 0 0-6.902 14.59 165.88 165.88 0 0 0-5.437 15.199 164.35 164.35 0 0 0-3.922 15.656c-1.051 5.285-1.84 10.605-2.367 15.965a164.61 164.61 0 0 0-.793 16.121 164.55 164.55 0 0 0 .793 16.121 164.24 164.24 0 0 0 2.367 15.969c1.051 5.281 2.359 10.5 3.922 15.656s3.379 10.219 5.438 15.199a164.66 164.66 0 0 0 6.902 14.59 164.79 164.79 0 0 0 8.297 13.844 164.81 164.81 0 0 0 9.617 12.965 165.37 165.37 0 0 0 10.84 11.961c3.809 3.809 7.793 7.422 11.957 10.836a164.56 164.56 0 0 0 12.965 9.617c4.48 2.992 9.094 5.758 13.848 8.297a164.66 164.66 0 0 0 14.59 6.902c4.977 2.063 10.043 3.875 15.195 5.438s10.375 2.871 15.66 3.922a164.16 164.16 0 0 0 15.965 2.367 164.55 164.55 0 0 0 32.242 0 164.16 164.16 0 0 0 15.965-2.367c5.285-1.051 10.504-2.359 15.66-3.922s10.219-3.375 15.195-5.437a164.66 164.66 0 0 0 14.59-6.902c4.754-2.539 9.367-5.305 13.848-8.297s8.797-6.199 12.961-9.617a163.6 163.6 0 0 0 11.961-10.836 165.37 165.37 0 0 0 10.84-11.961 163.79 163.79 0 0 0 17.914-26.809c2.539-4.75 4.84-9.613 6.898-14.59a165.16 165.16 0 0 0 5.441-15.199c1.563-5.156 2.867-10.375 3.922-15.656a164.24 164.24 0 0 0 2.367-15.969 164.55 164.55 0 0 0 .793-16.121zm0 0" class="B"/></clipPath><clipPath id="C"><path d="M675 180h258v204H675zm0 0" class="B"/></clipPath><clipPath id="D"><path d="M984.977 297.523a164.61 164.61 0 0 0-.793-16.121c-.527-5.359-1.316-10.68-2.367-15.965s-2.359-10.504-3.922-15.656a164.75 164.75 0 0 0-5.441-15.199c-2.059-4.977-4.359-9.84-6.898-14.59s-5.305-9.367-8.301-13.844a163.79 163.79 0 0 0-9.613-12.965 164.55 164.55 0 0 0-22.801-22.801 164.45 164.45 0 0 0-12.961-9.613c-4.48-2.992-9.094-5.758-13.848-8.297a164.66 164.66 0 0 0-14.59-6.902c-4.977-2.062-10.043-3.875-15.195-5.437s-10.375-2.871-15.66-3.922a164.16 164.16 0 0 0-15.965-2.367c-5.359-.531-10.734-.793-16.121-.793s-10.762.262-16.121.793a164.16 164.16 0 0 0-15.965 2.367c-5.285 1.051-10.504 2.359-15.66 3.922s-10.219 3.375-15.195 5.438a164.66 164.66 0 0 0-14.59 6.902c-4.754 2.539-9.367 5.305-13.848 8.297a164.51 164.51 0 0 0-12.965 9.613 164.49 164.49 0 0 0-11.957 10.84 164.55 164.55 0 0 0-10.84 11.961 164.81 164.81 0 0 0-9.617 12.965c-2.992 4.477-5.758 9.094-8.297 13.844a164.66 164.66 0 0 0-6.902 14.59 165.88 165.88 0 0 0-5.437 15.199 164.35 164.35 0 0 0-3.922 15.656c-1.051 5.285-1.84 10.605-2.367 15.965a164.61 164.61 0 0 0-.793 16.121 164.55 164.55 0 0 0 .793 16.121 164.24 164.24 0 0 0 2.367 15.969c1.051 5.281 2.359 10.5 3.922 15.656s3.379 10.219 5.438 15.199a164.66 164.66 0 0 0 6.902 14.59 164.79 164.79 0 0 0 8.297 13.844 164.81 164.81 0 0 0 9.617 12.965 165.37 165.37 0 0 0 10.84 11.961c3.809 3.809 7.793 7.422 11.957 10.836a164.56 164.56 0 0 0 12.965 9.617c4.48 2.992 9.094 5.758 13.848 8.297a164.66 164.66 0 0 0 14.59 6.902c4.977 2.063 10.043 3.875 15.195 5.438s10.375 2.871 15.66 3.922a164.16 164.16 0 0 0 15.965 2.367 164.55 164.55 0 0 0 32.242 0 164.16 164.16 0 0 0 15.965-2.367c5.285-1.051 10.504-2.359 15.66-3.922s10.219-3.375 15.195-5.437a164.66 164.66 0 0 0 14.59-6.902c4.754-2.539 9.367-5.305 13.848-8.297s8.797-6.199 12.961-9.617a163.6 163.6 0 0 0 11.961-10.836 165.37 165.37 0 0 0 10.84-11.961 163.79 163.79 0 0 0 17.914-26.809c2.539-4.75 4.84-9.613 6.898-14.59a165.16 165.16 0 0 0 5.441-15.199c1.563-5.156 2.867-10.375 3.922-15.656a164.24 164.24 0 0 0 2.367-15.969 164.55 164.55 0 0 0 .793-16.121zm0 0" class="B"/></clipPath><clipPath id="E"><path d="M675 135h258v249H675zm0 0" class="B"/></clipPath><clipPath id="F"><path d="M984.977 297.523a164.61 164.61 0 0 0-.793-16.121c-.527-5.359-1.316-10.68-2.367-15.965s-2.359-10.504-3.922-15.656a164.75 164.75 0 0 0-5.441-15.199c-2.059-4.977-4.359-9.84-6.898-14.59s-5.305-9.367-8.301-13.844a163.79 163.79 0 0 0-9.613-12.965 164.55 164.55 0 0 0-22.801-22.801 164.45 164.45 0 0 0-12.961-9.613c-4.48-2.992-9.094-5.758-13.848-8.297a164.66 164.66 0 0 0-14.59-6.902c-4.977-2.062-10.043-3.875-15.195-5.437s-10.375-2.871-15.66-3.922a164.16 164.16 0 0 0-15.965-2.367c-5.359-.531-10.734-.793-16.121-.793s-10.762.262-16.121.793a164.16 164.16 0 0 0-15.965 2.367c-5.285 1.051-10.504 2.359-15.66 3.922s-10.219 3.375-15.195 5.438a164.66 164.66 0 0 0-14.59 6.902c-4.754 2.539-9.367 5.305-13.848 8.297a164.51 164.51 0 0 0-12.965 9.613 164.49 164.49 0 0 0-11.957 10.84 164.55 164.55 0 0 0-10.84 11.961 164.81 164.81 0 0 0-9.617 12.965c-2.992 4.477-5.758 9.094-8.297 13.844a164.66 164.66 0 0 0-6.902 14.59 165.88 165.88 0 0 0-5.437 15.199 164.35 164.35 0 0 0-3.922 15.656c-1.051 5.285-1.84 10.605-2.367 15.965a164.61 164.61 0 0 0-.793 16.121 164.55 164.55 0 0 0 .793 16.121 164.24 164.24 0 0 0 2.367 15.969c1.051 5.281 2.359 10.5 3.922 15.656s3.379 10.219 5.438 15.199a164.66 164.66 0 0 0 6.902 14.59 164.79 164.79 0 0 0 8.297 13.844 164.81 164.81 0 0 0 9.617 12.965 165.37 165.37 0 0 0 10.84 11.961c3.809 3.809 7.793 7.422 11.957 10.836a164.56 164.56 0 0 0 12.965 9.617c4.48 2.992 9.094 5.758 13.848 8.297a164.66 164.66 0 0 0 14.59 6.902c4.977 2.063 10.043 3.875 15.195 5.438s10.375 2.871 15.66 3.922a164.16 164.16 0 0 0 15.965 2.367 164.55 164.55 0 0 0 32.242 0 164.16 164.16 0 0 0 15.965-2.367c5.285-1.051 10.504-2.359 15.66-3.922s10.219-3.375 15.195-5.437a164.66 164.66 0 0 0 14.59-6.902c4.754-2.539 9.367-5.305 13.848-8.297s8.797-6.199 12.961-9.617a163.6 163.6 0 0 0 11.961-10.836 165.37 165.37 0 0 0 10.84-11.961 163.79 163.79 0 0 0 17.914-26.809c2.539-4.75 4.84-9.613 6.898-14.59a165.16 165.16 0 0 0 5.441-15.199c1.563-5.156 2.867-10.375 3.922-15.656a164.24 164.24 0 0 0 2.367-15.969 164.55 164.55 0 0 0 .793-16.121zm0 0" class="B"/></clipPath><clipPath id="G"><path d="M675 145h260v239H675zm0 0" class="B"/></clipPath><clipPath id="H"><path d="M984.977 297.523a164.61 164.61 0 0 0-.793-16.121c-.527-5.359-1.316-10.68-2.367-15.965s-2.359-10.504-3.922-15.656a164.75 164.75 0 0 0-5.441-15.199c-2.059-4.977-4.359-9.84-6.898-14.59s-5.305-9.367-8.301-13.844a163.79 163.79 0 0 0-9.613-12.965 164.55 164.55 0 0 0-22.801-22.801 164.45 164.45 0 0 0-12.961-9.613c-4.48-2.992-9.094-5.758-13.848-8.297a164.66 164.66 0 0 0-14.59-6.902c-4.977-2.062-10.043-3.875-15.195-5.437s-10.375-2.871-15.66-3.922a164.16 164.16 0 0 0-15.965-2.367c-5.359-.531-10.734-.793-16.121-.793s-10.762.262-16.121.793a164.16 164.16 0 0 0-15.965 2.367c-5.285 1.051-10.504 2.359-15.66 3.922s-10.219 3.375-15.195 5.438a164.66 164.66 0 0 0-14.59 6.902c-4.754 2.539-9.367 5.305-13.848 8.297a164.51 164.51 0 0 0-12.965 9.613 164.49 164.49 0 0 0-11.957 10.84 164.55 164.55 0 0 0-10.84 11.961 164.81 164.81 0 0 0-9.617 12.965c-2.992 4.477-5.758 9.094-8.297 13.844a164.66 164.66 0 0 0-6.902 14.59 165.88 165.88 0 0 0-5.437 15.199 164.35 164.35 0 0 0-3.922 15.656c-1.051 5.285-1.84 10.605-2.367 15.965a164.61 164.61 0 0 0-.793 16.121 164.55 164.55 0 0 0 .793 16.121 164.24 164.24 0 0 0 2.367 15.969c1.051 5.281 2.359 10.5 3.922 15.656s3.379 10.219 5.438 15.199a164.66 164.66 0 0 0 6.902 14.59 164.79 164.79 0 0 0 8.297 13.844 164.81 164.81 0 0 0 9.617 12.965 165.37 165.37 0 0 0 10.84 11.961c3.809 3.809 7.793 7.422 11.957 10.836a164.56 164.56 0 0 0 12.965 9.617c4.48 2.992 9.094 5.758 13.848 8.297a164.66 164.66 0 0 0 14.59 6.902c4.977 2.063 10.043 3.875 15.195 5.438s10.375 2.871 15.66 3.922a164.16 164.16 0 0 0 15.965 2.367 164.55 164.55 0 0 0 32.242 0 164.16 164.16 0 0 0 15.965-2.367c5.285-1.051 10.504-2.359 15.66-3.922s10.219-3.375 15.195-5.437a164.66 164.66 0 0 0 14.59-6.902c4.754-2.539 9.367-5.305 13.848-8.297s8.797-6.199 12.961-9.617a163.6 163.6 0 0 0 11.961-10.836 165.37 165.37 0 0 0 10.84-11.961 163.79 163.79 0 0 0 17.914-26.809c2.539-4.75 4.84-9.613 6.898-14.59a165.16 165.16 0 0 0 5.441-15.199c1.563-5.156 2.867-10.375 3.922-15.656a164.24 164.24 0 0 0 2.367-15.969 164.55 164.55 0 0 0 .793-16.121zm0 0" class="B"/></clipPath><clipPath id="I"><path d="M675 197h265v187H675zm0 0" class="B"/></clipPath><clipPath id="J"><path d="M984.977 297.523a164.61 164.61 0 0 0-.793-16.121c-.527-5.359-1.316-10.68-2.367-15.965s-2.359-10.504-3.922-15.656a164.75 164.75 0 0 0-5.441-15.199c-2.059-4.977-4.359-9.84-6.898-14.59s-5.305-9.367-8.301-13.844a163.79 163.79 0 0 0-9.613-12.965 164.55 164.55 0 0 0-22.801-22.801 164.45 164.45 0 0 0-12.961-9.613c-4.48-2.992-9.094-5.758-13.848-8.297a164.66 164.66 0 0 0-14.59-6.902c-4.977-2.062-10.043-3.875-15.195-5.437s-10.375-2.871-15.66-3.922a164.16 164.16 0 0 0-15.965-2.367c-5.359-.531-10.734-.793-16.121-.793s-10.762.262-16.121.793a164.16 164.16 0 0 0-15.965 2.367c-5.285 1.051-10.504 2.359-15.66 3.922s-10.219 3.375-15.195 5.438a164.66 164.66 0 0 0-14.59 6.902c-4.754 2.539-9.367 5.305-13.848 8.297a164.51 164.51 0 0 0-12.965 9.613 164.49 164.49 0 0 0-11.957 10.84 164.55 164.55 0 0 0-10.84 11.961 164.81 164.81 0 0 0-9.617 12.965c-2.992 4.477-5.758 9.094-8.297 13.844a164.66 164.66 0 0 0-6.902 14.59 165.88 165.88 0 0 0-5.437 15.199 164.35 164.35 0 0 0-3.922 15.656c-1.051 5.285-1.84 10.605-2.367 15.965a164.61 164.61 0 0 0-.793 16.121 164.55 164.55 0 0 0 .793 16.121 164.24 164.24 0 0 0 2.367 15.969c1.051 5.281 2.359 10.5 3.922 15.656s3.379 10.219 5.438 15.199a164.66 164.66 0 0 0 6.902 14.59 164.79 164.79 0 0 0 8.297 13.844 164.81 164.81 0 0 0 9.617 12.965 165.37 165.37 0 0 0 10.84 11.961c3.809 3.809 7.793 7.422 11.957 10.836a164.56 164.56 0 0 0 12.965 9.617c4.48 2.992 9.094 5.758 13.848 8.297a164.66 164.66 0 0 0 14.59 6.902c4.977 2.063 10.043 3.875 15.195 5.438s10.375 2.871 15.66 3.922a164.16 164.16 0 0 0 15.965 2.367 164.55 164.55 0 0 0 32.242 0 164.16 164.16 0 0 0 15.965-2.367c5.285-1.051 10.504-2.359 15.66-3.922s10.219-3.375 15.195-5.437a164.66 164.66 0 0 0 14.59-6.902c4.754-2.539 9.367-5.305 13.848-8.297s8.797-6.199 12.961-9.617a163.6 163.6 0 0 0 11.961-10.836 165.37 165.37 0 0 0 10.84-11.961 163.79 163.79 0 0 0 17.914-26.809c2.539-4.75 4.84-9.613 6.898-14.59a165.16 165.16 0 0 0 5.441-15.199c1.563-5.156 2.867-10.375 3.922-15.656a164.24 164.24 0 0 0 2.367-15.969 164.55 164.55 0 0 0 .793-16.121zm0 0" class="B"/></clipPath><clipPath id="K"><path d="M675 133.051h280V384H675zm0 0" class="B"/></clipPath><clipPath id="L"><path d="M984.977 297.523a164.61 164.61 0 0 0-.793-16.121c-.527-5.359-1.316-10.68-2.367-15.965s-2.359-10.504-3.922-15.656a164.75 164.75 0 0 0-5.441-15.199c-2.059-4.977-4.359-9.84-6.898-14.59s-5.305-9.367-8.301-13.844a163.79 163.79 0 0 0-9.613-12.965 164.55 164.55 0 0 0-22.801-22.801 164.45 164.45 0 0 0-12.961-9.613c-4.48-2.992-9.094-5.758-13.848-8.297a164.66 164.66 0 0 0-14.59-6.902c-4.977-2.062-10.043-3.875-15.195-5.437s-10.375-2.871-15.66-3.922a164.16 164.16 0 0 0-15.965-2.367c-5.359-.531-10.734-.793-16.121-.793s-10.762.262-16.121.793a164.16 164.16 0 0 0-15.965 2.367c-5.285 1.051-10.504 2.359-15.66 3.922s-10.219 3.375-15.195 5.438a164.66 164.66 0 0 0-14.59 6.902c-4.754 2.539-9.367 5.305-13.848 8.297a164.51 164.51 0 0 0-12.965 9.613 164.49 164.49 0 0 0-11.957 10.84 164.55 164.55 0 0 0-10.84 11.961 164.81 164.81 0 0 0-9.617 12.965c-2.992 4.477-5.758 9.094-8.297 13.844a164.66 164.66 0 0 0-6.902 14.59 165.88 165.88 0 0 0-5.437 15.199 164.35 164.35 0 0 0-3.922 15.656c-1.051 5.285-1.84 10.605-2.367 15.965a164.61 164.61 0 0 0-.793 16.121 164.55 164.55 0 0 0 .793 16.121 164.24 164.24 0 0 0 2.367 15.969c1.051 5.281 2.359 10.5 3.922 15.656s3.379 10.219 5.438 15.199a164.66 164.66 0 0 0 6.902 14.59 164.79 164.79 0 0 0 8.297 13.844 164.81 164.81 0 0 0 9.617 12.965 165.37 165.37 0 0 0 10.84 11.961c3.809 3.809 7.793 7.422 11.957 10.836a164.56 164.56 0 0 0 12.965 9.617c4.48 2.992 9.094 5.758 13.848 8.297a164.66 164.66 0 0 0 14.59 6.902c4.977 2.063 10.043 3.875 15.195 5.438s10.375 2.871 15.66 3.922a164.16 164.16 0 0 0 15.965 2.367 164.55 164.55 0 0 0 32.242 0 164.16 164.16 0 0 0 15.965-2.367c5.285-1.051 10.504-2.359 15.66-3.922s10.219-3.375 15.195-5.437a164.66 164.66 0 0 0 14.59-6.902c4.754-2.539 9.367-5.305 13.848-8.297s8.797-6.199 12.961-9.617a163.6 163.6 0 0 0 11.961-10.836 165.37 165.37 0 0 0 10.84-11.961 163.79 163.79 0 0 0 17.914-26.809c2.539-4.75 4.84-9.613 6.898-14.59a165.16 165.16 0 0 0 5.441-15.199c1.563-5.156 2.867-10.375 3.922-15.656a164.24 164.24 0 0 0 2.367-15.969 164.55 164.55 0 0 0 .793-16.121zm0 0" class="B"/></clipPath><path id="M" d="M900.586 252.586c0 .297-.059.586-.172.859a2.2 2.2 0 0 1-1.219 1.219c-.273.113-.562.172-.859.172s-.586-.059-.863-.172a2.24 2.24 0 0 1-.73-.488 2.19 2.19 0 0 1-.484-.73c-.117-.273-.172-.562-.172-.859s.055-.586.172-.863a2.23 2.23 0 0 1 1.215-1.215c.277-.117.563-.172.863-.172s.586.055.859.172a2.19 2.19 0 0 1 .73.484 2.24 2.24 0 0 1 .488.73c.113.277.172.563.172.863zm0 0"/><path id="N" d="M822.75 184.801c0 .297-.059.586-.172.859a2.2 2.2 0 0 1-1.219 1.219c-.273.113-.562.172-.859.172s-.586-.059-.859-.172a2.2 2.2 0 0 1-1.219-1.219c-.113-.273-.172-.562-.172-.859s.059-.586.172-.863.277-.516.488-.727.453-.375.73-.488.563-.172.859-.172.586.055.859.172.52.273.73.488.375.453.488.727.172.563.172.863zm0 0"/><path id="O" d="M681.719 378.945c0 .297-.055.586-.172.859a2.19 2.19 0 0 1-.484.73 2.24 2.24 0 0 1-.73.488c-.277.113-.562.172-.863.172s-.586-.059-.859-.172a2.2 2.2 0 0 1-1.219-1.219c-.113-.273-.172-.562-.172-.859a2.27 2.27 0 0 1 .172-.863c.113-.273.277-.516.488-.727a2.2 2.2 0 0 1 .73-.488c.273-.113.563-.172.859-.172s.586.059.863.172a2.24 2.24 0 0 1 .73.488c.211.211.371.453.484.727s.172.566.172.863zm0 0"/><path id="P" d="M822.75 375.816c0 .301-.059.586-.172.863a2.24 2.24 0 0 1-.488.73 2.19 2.19 0 0 1-.73.484c-.273.117-.562.172-.859.172s-.586-.055-.859-.172a2.19 2.19 0 0 1-.73-.484 2.24 2.24 0 0 1-.488-.73c-.113-.277-.172-.562-.172-.863s.059-.586.172-.859a2.2 2.2 0 0 1 1.219-1.219c.273-.113.563-.172.859-.172s.586.059.859.172a2.2 2.2 0 0 1 1.219 1.219c.113.273.172.563.172.859zm0 0"/><path id="Q" d="M930.203 235.484c0 .301-.059.586-.172.863s-.277.516-.488.727a2.2 2.2 0 0 1-.73.488c-.273.117-.562.172-.859.172s-.586-.055-.863-.172-.516-.277-.727-.488-.375-.453-.488-.727-.172-.562-.172-.863.055-.586.172-.859a2.2 2.2 0 0 1 .488-.73c.211-.211.453-.375.727-.488s.563-.172.863-.172.586.059.859.172a2.2 2.2 0 0 1 1.219 1.219c.113.273.172.563.172.859zm0 0"/><path id="R" d="M822.75 373.344c0 .297-.059.586-.172.859a2.2 2.2 0 0 1-1.219 1.219c-.273.113-.562.172-.859.172s-.586-.059-.859-.172a2.2 2.2 0 0 1-1.219-1.219c-.113-.273-.172-.562-.172-.859s.059-.586.172-.863a2.24 2.24 0 0 1 .488-.73 2.19 2.19 0 0 1 .73-.484c.273-.117.563-.172.859-.172s.586.055.859.172a2.19 2.19 0 0 1 .73.484 2.24 2.24 0 0 1 .488.73c.113.277.172.563.172.863zm0 0"/><path id="S" d="M910.449 246.891c0 .301-.059.586-.172.863s-.277.52-.488.73a2.26 2.26 0 0 1-.73.488c-.277.113-.562.168-.859.168a2.25 2.25 0 0 1-.863-.168c-.273-.117-.52-.277-.73-.488s-.371-.457-.488-.73a2.25 2.25 0 0 1-.168-.863c0-.297.055-.582.168-.859a2.26 2.26 0 0 1 .488-.73c.211-.211.457-.371.73-.488s.563-.172.863-.172a2.25 2.25 0 0 1 .859.172 2.26 2.26 0 0 1 1.219 1.219 2.25 2.25 0 0 1 .172.859zm0 0"/><path id="T" d="M932.25 360.742a2.27 2.27 0 0 1-.172.863c-.113.273-.277.516-.488.727a2.2 2.2 0 0 1-.73.488c-.273.113-.562.172-.859.172s-.586-.059-.859-.172a2.2 2.2 0 0 1-.73-.488c-.211-.211-.375-.453-.488-.727a2.27 2.27 0 0 1-.172-.863c0-.297.059-.586.172-.859a2.2 2.2 0 0 1 1.219-1.219c.273-.113.563-.172.859-.172s.586.059.859.172a2.2 2.2 0 0 1 1.219 1.219c.113.273.172.563.172.859zm0 0"/><path id="U" d="M937.305 231.391c0 .297-.059.586-.172.859a2.2 2.2 0 0 1-1.219 1.219c-.273.113-.562.172-.859.172s-.586-.059-.859-.172a2.2 2.2 0 0 1-1.219-1.219c-.113-.273-.172-.562-.172-.859s.059-.586.172-.863.277-.516.488-.727a2.2 2.2 0 0 1 .73-.488c.273-.117.563-.172.859-.172s.586.055.859.172a2.2 2.2 0 0 1 .73.488c.211.211.375.453.488.727s.172.563.172.863zm0 0"/><path id="V" d="M952.078 222.855a2.23 2.23 0 0 1-.168.859 2.26 2.26 0 0 1-.488.73 2.24 2.24 0 0 1-.73.488c-.277.113-.562.172-.863.172a2.25 2.25 0 0 1-.859-.172 2.2 2.2 0 0 1-.73-.488 2.26 2.26 0 0 1-.488-.73c-.113-.273-.172-.562-.172-.859s.059-.586.172-.863a2.29 2.29 0 0 1 .488-.727 2.2 2.2 0 0 1 .73-.488 2.18 2.18 0 0 1 .859-.172c.301 0 .586.055.863.172a2.24 2.24 0 0 1 .73.488 2.29 2.29 0 0 1 .488.727 2.25 2.25 0 0 1 .168.863zm0 0"/></defs><path fill="rgb(100%, 100%, 100%)" d="M984.977 297.523l-.199-8.07-.594-8.051-.988-8.012-1.379-7.953-1.77-7.875-2.152-7.781-2.535-7.668-2.906-7.531-3.27-7.379-3.629-7.211-3.98-7.023-4.316-6.82-4.648-6.602-4.969-6.363-5.273-6.113-5.566-5.848-5.848-5.566-6.113-5.273-6.363-4.965-6.598-4.648-6.82-4.32-7.027-3.977-7.211-3.633-7.379-3.27-7.531-2.906-7.664-2.531-7.781-2.152-7.879-1.77-7.953-1.379-8.012-.988-8.051-.594-8.07-.199-8.07.199-8.051.594-8.012.988-7.953 1.379-7.879 1.77-7.781 2.152-7.664 2.531-7.531 2.906-7.379 3.27-7.211 3.633-7.027 3.977-6.82 4.32-6.598 4.648-6.367 4.965-6.109 5.273-5.848 5.566-5.566 5.848-5.273 6.113-4.969 6.363-4.648 6.602-4.316 6.82-3.98 7.023-3.629 7.211-3.273 7.379-2.902 7.531-2.535 7.668-2.152 7.781-1.77 7.875-1.379 7.953-.988 8.012-.594 8.051-.199 8.07.199 8.07.594 8.051.988 8.016 1.379 7.953 1.77 7.875 2.152 7.781 2.535 7.664 2.902 7.535 3.273 7.379 3.629 7.211 3.98 7.023 4.316 6.82 4.648 6.602 4.969 6.363 5.273 6.113 5.566 5.848 5.848 5.566 6.109 5.27 6.367 4.969 6.598 4.648 6.82 4.32 7.027 3.977 7.211 3.629 7.379 3.273 7.531 2.906 7.664 2.531 7.781 2.152 7.879 1.77 7.953 1.379 8.012.988 8.051.594 8.07.199 8.07-.199 8.051-.594 8.012-.988 7.953-1.379 7.879-1.77 7.781-2.152 7.664-2.531 7.531-2.906 7.379-3.273 7.211-3.629 7.027-3.977 6.82-4.32 6.598-4.648 6.363-4.969 6.113-5.27 5.848-5.566 5.566-5.848 5.273-6.113 4.969-6.363 4.648-6.602 4.316-6.82 3.98-7.023 3.629-7.211 3.27-7.379 2.906-7.535 2.535-7.664 2.152-7.781 1.77-7.875 1.379-7.953.988-8.016.594-8.051.199-8.07zm0 0"/><g stroke="rgb(50.19989%, 50.19989%, 50.19989%)" stroke-width=".75" class="D"><path d="M820.5 297.523l142.438-82.234"/><path d="M820.5 297.523V133.051"/><path d="M820.5 297.523l-142.441-82.234M820.5 297.523l-142.441 82.238M820.5 297.523V462m0-164.477l142.438 82.238"/><path d="M853.074 297.523l-.156-3.191-.469-3.164a32.72 32.72 0 0 0-.777-3.102l-1.074-3.012-1.367-2.891-1.645-2.742c-.59-.887-1.227-1.742-1.902-2.566l-2.148-2.371c-.754-.754-1.543-1.469-2.367-2.145a32.08 32.08 0 0 0-2.566-1.906l-2.742-1.645a33.07 33.07 0 0 0-2.891-1.367l-3.012-1.078-3.102-.777-3.164-.469a32.21 32.21 0 0 0-3.191-.156l-3.195.156-3.16.469-3.102.777-3.012 1.078-2.891 1.367-2.742 1.645-2.566 1.906-2.367 2.145-2.148 2.371-1.902 2.566-1.645 2.742-1.367 2.891-1.074 3.012-.777 3.102-.469 3.164-.156 3.191.156 3.195.469 3.164a32.72 32.72 0 0 0 .777 3.102l1.074 3.008 1.367 2.891 1.645 2.742a31.41 31.41 0 0 0 1.902 2.57l2.148 2.371 2.367 2.145a32.08 32.08 0 0 0 2.566 1.906l2.742 1.645 2.891 1.367 3.012 1.078 3.102.777 3.16.469 3.195.156 3.191-.156 3.164-.469 3.102-.777 3.012-1.078 2.891-1.367 2.742-1.645 2.566-1.906 2.367-2.145 2.148-2.371a31.41 31.41 0 0 0 1.902-2.57l1.645-2.742c.504-.941.957-1.902 1.367-2.891l1.074-3.008.777-3.102.469-3.164.156-3.195zm0 0"/><path d="M885.637 297.523l-.078-3.195-.234-3.187-.391-3.172-.547-3.152-.703-3.117-.852-3.082-1.004-3.035-1.148-2.984-1.297-2.922-1.438-2.855-1.574-2.781-1.711-2.703-1.84-2.613-1.969-2.52-2.09-2.422-2.203-2.316-2.316-2.203-2.418-2.09-2.523-1.965-2.613-1.844-2.699-1.707-2.781-1.578-2.855-1.438-2.926-1.293-2.98-1.152-3.035-1.004-3.082-.852-3.121-.699-3.148-.547-3.176-.395-3.188-.234-3.195-.078-3.195.078-3.187.234-3.176.395-3.148.547-3.121.699-3.082.852-3.035 1.004-2.98 1.152-2.926 1.293-2.855 1.438-2.781 1.578-2.699 1.707-2.613 1.844-2.523 1.965-2.418 2.09-2.316 2.203-2.207 2.316-2.086 2.422-1.969 2.52-1.84 2.613-1.711 2.703-1.574 2.781-1.437 2.855-1.297 2.922-1.148 2.984-1.004 3.035-.852 3.082-.703 3.117-.547 3.152-.391 3.172-.234 3.188-.078 3.195.078 3.199.234 3.188.391 3.172.547 3.152.703 3.117.852 3.082 1.004 3.035 1.148 2.984 1.297 2.922 1.437 2.855 1.574 2.781 1.711 2.703 1.84 2.613 1.969 2.52 2.086 2.422 2.207 2.316 2.316 2.203 2.418 2.086 2.523 1.969 2.613 1.84 2.699 1.711 2.781 1.578 2.855 1.437 2.926 1.293 2.98 1.152 3.035 1.004 3.082.852 3.121.699 3.148.547 3.176.391 3.188.238 3.195.078 3.195-.078 3.188-.238 3.176-.391 3.148-.547 3.121-.699 3.082-.852 3.035-1.004 2.98-1.152 2.926-1.293 2.855-1.437 2.781-1.578 2.699-1.711 2.613-1.84 2.523-1.969 2.418-2.086 2.316-2.203 2.203-2.316 2.09-2.422 1.969-2.52 1.84-2.613 1.711-2.703 1.574-2.781 1.438-2.855 1.297-2.922 1.148-2.984 1.004-3.035.852-3.082.703-3.117.547-3.152.391-3.172.234-3.188.078-3.199zm0 0"/><path d="M918.211 297.523l-.117-4.793-.355-4.781-.586-4.762-.82-4.727-1.051-4.676-1.277-4.625-1.504-4.551-1.727-4.477-1.945-4.383-2.156-4.285-2.363-4.172-2.566-4.055-2.762-3.918-2.949-3.781-3.133-3.633-3.309-3.473-3.473-3.309-3.629-3.133-3.781-2.949-3.922-2.762-4.051-2.566-4.176-2.363-4.281-2.156-4.387-1.941-4.473-1.727-4.555-1.504-4.621-1.281-4.68-1.051-4.727-.82-4.758-.586-4.785-.352-4.793-.117-4.793.117-4.785.352-4.758.586-4.727.82-4.68 1.051-4.621 1.281-4.555 1.504-4.473 1.727-4.387 1.941-4.281 2.156-4.176 2.363-4.051 2.566-3.922 2.762-3.781 2.953-3.629 3.129-3.473 3.309-3.309 3.473-3.133 3.633-2.949 3.781-2.762 3.918-2.566 4.055-2.363 4.172-2.156 4.285-1.945 4.383-1.727 4.477-1.504 4.551-1.277 4.625-1.051 4.676-.82 4.727-.586 4.762-.355 4.781-.117 4.793.117 4.797.355 4.781.586 4.762.82 4.723 1.051 4.68 1.277 4.625 1.504 4.551 1.727 4.477 1.945 4.383 2.156 4.285 2.363 4.172 2.566 4.051 2.762 3.922 2.949 3.781 3.133 3.633 3.309 3.473 3.473 3.305 3.629 3.133 3.781 2.953 3.922 2.762 4.051 2.563 4.176 2.367 4.281 2.156 4.387 1.941 4.473 1.727 4.555 1.504 4.621 1.281 4.68 1.051 4.727.816 4.758.59 4.785.352 4.793.117 4.793-.117 4.785-.352 4.758-.59 4.727-.816 4.68-1.051 4.621-1.281 4.555-1.504 4.473-1.727 4.387-1.941 4.281-2.156 4.176-2.367 4.051-2.563 3.922-2.762 3.781-2.953 3.629-3.133 3.473-3.305 3.309-3.473 3.133-3.633 2.949-3.781 2.762-3.922 2.566-4.051 2.363-4.172 2.156-4.285 1.945-4.383 1.727-4.477 1.504-4.551 1.277-4.625 1.051-4.68.82-4.723.586-4.762.355-4.781.117-4.797zm0 0"/><path d="M950.773 297.523l-.156-6.391-.469-6.379-.785-6.344-1.09-6.301-1.402-6.238-1.707-6.164-2.004-6.07-2.301-5.965-2.594-5.848-2.875-5.711-3.148-5.563-3.422-5.402-3.684-5.227-3.934-5.043-4.176-4.84-4.41-4.633-4.629-4.41-4.844-4.176-5.039-3.934-5.23-3.68-5.398-3.422-5.566-3.152-5.711-2.875-5.844-2.59-5.969-2.301-6.07-2.008-6.164-1.707-6.238-1.398-6.297-1.094-6.348-.781-6.379-.473-6.391-.156-6.391.156-6.379.473-6.348.781-6.297 1.094-6.238 1.398-6.164 1.707-6.07 2.008-5.969 2.301-5.844 2.59-5.711 2.875-5.566 3.152-5.398 3.422-5.23 3.68-5.039 3.934-4.844 4.176-4.629 4.41-4.41 4.633-4.176 4.84-3.934 5.043-3.684 5.227-3.422 5.402-3.148 5.563-2.875 5.711-2.594 5.848-2.301 5.965-2.004 6.07-1.707 6.164-1.402 6.238-1.09 6.301-.785 6.344-.469 6.379-.156 6.391.156 6.395.469 6.375.785 6.348 1.09 6.301 1.402 6.238 1.707 6.164 2.004 6.07 2.301 5.965 2.594 5.848 2.875 5.711 3.148 5.563 3.422 5.402 3.684 5.227 3.934 5.043 4.176 4.84 4.41 4.633 4.629 4.406 4.844 4.18 5.039 3.934 5.23 3.68 5.398 3.422 5.566 3.152 5.711 2.875 5.844 2.59 5.969 2.301 6.07 2.008 6.164 1.703 6.238 1.402 6.297 1.094 6.348.781 6.379.473 6.391.156 6.391-.156 6.379-.473 6.348-.781 6.297-1.094 6.238-1.402 6.164-1.703 6.07-2.008 5.969-2.301 5.844-2.59 5.711-2.875 5.566-3.152 5.398-3.422 5.23-3.68 5.039-3.934 4.844-4.18 4.629-4.406 4.41-4.633 4.176-4.84 3.934-5.043 3.684-5.227 3.422-5.402 3.148-5.563 2.875-5.711 2.594-5.848 2.301-5.965 2.004-6.07 1.707-6.164 1.402-6.238 1.09-6.301.785-6.348.469-6.375.156-6.395zm0 0"/><path d="M983.348 297.523l-.195-7.988-.59-7.973-.977-7.934-1.367-7.875-1.75-7.797-2.133-7.703-2.508-7.59-2.875-7.457-3.242-7.309-3.594-7.141-3.937-6.953-4.277-6.754-4.602-6.535-4.918-6.301-5.223-6.051-5.508-5.789-5.789-5.512-6.055-5.223-6.301-4.914-6.535-4.605-6.754-4.273-6.953-3.941-7.141-3.594-7.305-3.238-7.457-2.879-7.59-2.504-7.703-2.133-7.801-1.754-7.875-1.363-7.934-.98-7.969-.586-7.992-.199-7.992.199-7.969.586-7.934.98-7.875 1.363-7.801 1.754-7.703 2.133-7.59 2.504-7.457 2.879-7.305 3.238-7.141 3.594-6.953 3.941-6.754 4.273-6.535 4.605-6.301 4.914-6.055 5.223-5.789 5.512-5.508 5.789-5.223 6.051-4.918 6.301-4.602 6.535-4.277 6.754-3.937 6.953-3.594 7.141-3.242 7.309-2.875 7.457-2.508 7.59-2.133 7.703-1.75 7.797-1.367 7.875-.977 7.934-.59 7.973-.195 7.988.195 7.992.59 7.973.977 7.93 1.367 7.879 1.75 7.797 2.133 7.703 2.508 7.59 2.875 7.457 3.242 7.309 3.594 7.137 3.938 6.957 4.277 6.754 4.602 6.531 4.918 6.305 5.223 6.051 5.508 5.789 5.789 5.512 6.055 5.219 6.301 4.918 6.535 4.602 6.754 4.277 6.953 3.941 7.141 3.594 7.305 3.238 7.457 2.875 7.59 2.508 7.703 2.133 7.801 1.75 7.875 1.367 7.934.98 7.969.586 7.992.195 7.992-.195 7.969-.586 7.934-.98 7.875-1.367 7.801-1.75 7.703-2.133 7.59-2.508 7.457-2.875 7.305-3.238 7.141-3.594 6.953-3.941 6.754-4.277 6.535-4.602 6.301-4.918 6.055-5.219 5.789-5.512 5.508-5.789 5.223-6.051 4.918-6.305 4.602-6.531 4.277-6.754 3.938-6.957 3.594-7.137 3.242-7.309 2.875-7.457 2.508-7.59 2.133-7.703 1.75-7.797 1.367-7.879.977-7.93.59-7.973.195-7.992zm0 0"/></g><g clip-path="url(#A)" class="C G"><g clip-path="url(#B)"><path d="M898.336 252.586L820.5 184.801l-96.824 56.828-44.207 137.316 141.031-3.129 107.438-16.266zm0 0"/></g></g><g clip-path="url(#C)" class="D E F"><g clip-path="url(#D)"><path stroke="rgb(0%, 0%, 0%)" stroke-opacity=".2" d="M898.336 252.586L820.5 184.801l-96.824 56.828-44.207 137.316 141.031-3.129 107.438-16.266-29.602-106.965"/></g></g><g class="G C"><use xlink:href="#M"/><use xlink:href="#N"/><path d="M725.926 241.629a2.25 2.25 0 0 1-.172.859 2.2 2.2 0 0 1-1.219 1.219c-.273.113-.562.172-.859.172s-.586-.059-.863-.172-.516-.277-.73-.488a2.19 2.19 0 0 1-.484-.73 2.18 2.18 0 0 1-.172-.859c0-.301.055-.586.172-.863a2.23 2.23 0 0 1 .484-.73 2.35 2.35 0 0 1 .73-.488 2.25 2.25 0 0 1 .863-.168 2.23 2.23 0 0 1 .859.168 2.26 2.26 0 0 1 .73.488 2.24 2.24 0 0 1 .488.73c.113.277.172.563.172.863zm0 0"/><use xlink:href="#O"/><use xlink:href="#P"/><use xlink:href="#N" x="107.438" y="174.75"/><use xlink:href="#M"/></g><g clip-path="url(#E)" class="D E F"><g clip-path="url(#F)"><path stroke="rgb(12.159729%, 46.669006%, 70.588684%)" d="M927.953 235.484L820.5 140.137l-135.887 78.93-5.145 159.879 141.031-5.602 107.438-13.793.016-124.066"/></g></g><g fill="rgb(12.159729%, 46.669006%, 70.588684%)"><use xlink:href="#Q"/><path d="M822.75 140.137c0 .301-.059.586-.172.863s-.277.516-.488.727-.453.375-.73.488a2.25 2.25 0 0 1-.859.172c-.297 0-.586-.055-.859-.172s-.52-.273-.73-.488-.375-.453-.488-.727-.172-.562-.172-.863a2.22 2.22 0 0 1 .172-.859 2.2 2.2 0 0 1 1.219-1.219 2.24 2.24 0 0 1 1.718 0 2.2 2.2 0 0 1 1.219 1.219 2.24 2.24 0 0 1 .172.859zm-135.887 78.929a2.25 2.25 0 0 1-.168.863c-.117.273-.277.52-.488.73a2.23 2.23 0 0 1-.73.484c-.277.117-.562.172-.863.172a2.18 2.18 0 0 1-.859-.172 2.19 2.19 0 0 1-.73-.484c-.211-.211-.371-.457-.488-.73a2.17 2.17 0 0 1-.172-.863 2.22 2.22 0 0 1 .172-.859 2.26 2.26 0 0 1 .488-.73 2.2 2.2 0 0 1 .73-.488 2.25 2.25 0 0 1 .859-.172c.301 0 .586.059.863.172a2.24 2.24 0 0 1 .73.488 2.26 2.26 0 0 1 .488.73 2.23 2.23 0 0 1 .168.859zm0 0"/><use xlink:href="#O"/><use xlink:href="#R"/><use xlink:href="#N" x="107.438" y="174.75"/><use xlink:href="#Q"/></g><g clip-path="url(#G)" class="D E F"><g clip-path="url(#H)"><path stroke="rgb(100%, 49.798584%, 5.488586%)" d="M908.199 246.891L820.5 149.387l-129.051 73.625-11.98 155.934 141.031-8.047L930 360.742l-21.801-113.852"/></g></g><g fill="rgb(100%, 49.798584%, 5.488586%)"><use xlink:href="#S"/><path d="M822.75 149.387a2.25 2.25 0 0 1-.172.859 2.2 2.2 0 0 1-.488.73 2.26 2.26 0 0 1-.73.488c-.273.113-.562.172-.859.172s-.586-.059-.859-.172a2.26 2.26 0 0 1-.73-.488 2.2 2.2 0 0 1-.488-.73 2.25 2.25 0 0 1-.172-.859c0-.301.059-.586.172-.863a2.24 2.24 0 0 1 .488-.73 2.26 2.26 0 0 1 .73-.488 2.23 2.23 0 0 1 .859-.168 2.23 2.23 0 0 1 .859.168 2.26 2.26 0 0 1 .73.488 2.24 2.24 0 0 1 .488.73 2.26 2.26 0 0 1 .172.863zm-129.051 73.625c0 .301-.059.586-.172.863a2.29 2.29 0 0 1-.488.727 2.2 2.2 0 0 1-.73.488 2.18 2.18 0 0 1-.859.172c-.301 0-.586-.055-.863-.172a2.24 2.24 0 0 1-.73-.488 2.29 2.29 0 0 1-.488-.727 2.25 2.25 0 0 1-.168-.863 2.23 2.23 0 0 1 .168-.859 2.26 2.26 0 0 1 .488-.73 2.24 2.24 0 0 1 .73-.488 2.26 2.26 0 0 1 .863-.172 2.25 2.25 0 0 1 .859.172 2.2 2.2 0 0 1 .73.488 2.26 2.26 0 0 1 .488.73 2.24 2.24 0 0 1 .172.859zm0 0"/><use xlink:href="#O"/><use xlink:href="#R" y="-2.446"/><use xlink:href="#T"/><use xlink:href="#S"/></g><g clip-path="url(#I)" class="D E F"><g clip-path="url(#J)"><path stroke="rgb(17.248535%, 62.748718%, 17.248535%)" d="M935.055 231.391l-114.555-29.5-100.949 37.352-40.082 139.703 141.031-5.602L930 360.742l5.055-129.352"/></g></g><g fill="rgb(17.248535%, 62.748718%, 17.248535%)"><use xlink:href="#U"/><path d="M822.75 201.891c0 .301-.059.586-.172.863a2.24 2.24 0 0 1-.488.73 2.26 2.26 0 0 1-.73.488 2.23 2.23 0 0 1-.859.168 2.23 2.23 0 0 1-.859-.168 2.26 2.26 0 0 1-.73-.488 2.24 2.24 0 0 1-.488-.73c-.113-.277-.172-.562-.172-.863a2.25 2.25 0 0 1 .172-.859 2.2 2.2 0 0 1 .488-.73 2.26 2.26 0 0 1 .73-.488 2.24 2.24 0 0 1 1.718 0 2.26 2.26 0 0 1 .73.488 2.2 2.2 0 0 1 .488.73 2.25 2.25 0 0 1 .172.859zm-100.949 37.351a2.27 2.27 0 0 1-.172.863c-.113.273-.277.516-.488.727a2.2 2.2 0 0 1-.73.488c-.273.113-.562.172-.859.172a2.27 2.27 0 0 1-.863-.172 2.23 2.23 0 0 1-.73-.488 2.16 2.16 0 0 1-.484-.727 2.26 2.26 0 0 1-.172-.863c0-.297.055-.586.172-.859a2.19 2.19 0 0 1 .484-.73 2.28 2.28 0 0 1 .73-.488c.273-.113.563-.172.863-.172s.586.059.859.172a2.2 2.2 0 0 1 1.219 1.219 2.24 2.24 0 0 1 .172.859zm0 0"/><use xlink:href="#O"/><use xlink:href="#R"/><use xlink:href="#T"/><use xlink:href="#U"/></g><g clip-path="url(#K)" class="D E F"><g clip-path="url(#L)"><path stroke="rgb(58.039856%, 40.388489%, 74.119568%)" d="M949.828 222.855L820.5 136.793l-116.406 93.523-24.625 148.629 141.031-3.129 107.438-16.266 21.891-136.695"/></g></g><g fill="rgb(58.039856%, 40.388489%, 74.119568%)"><use xlink:href="#V"/><use xlink:href="#U" x="-114.555" y="-94.598"/><path d="M706.344 230.316c0 .301-.059.586-.172.863a2.24 2.24 0 0 1-.488.73 2.19 2.19 0 0 1-.73.484c-.273.117-.562.172-.859.172s-.586-.055-.863-.172a2.23 2.23 0 0 1-1.215-1.215c-.117-.277-.172-.562-.172-.863s.055-.586.172-.859a2.19 2.19 0 0 1 .484-.73 2.24 2.24 0 0 1 .73-.488c.277-.113.563-.172.863-.172s.586.059.859.172a2.2 2.2 0 0 1 1.219 1.219c.113.273.172.563.172.859zm0 0"/><use xlink:href="#O"/><use xlink:href="#P"/><use xlink:href="#N" x="107.438" y="174.75"/><use xlink:href="#V"/></g><path d="M963.266 215.102l3.246-1.875M820.5 132.676v-3.75m-142.766 86.176l-3.246-1.875m3.246 166.722l-3.246 1.875M820.5 462.375v3.75m142.766-86.176l3.246 1.875M820.5 297.898v3.75m32.574-3.75v3.75m32.563-3.75v3.75m32.574-3.75v3.75m32.562-3.75v3.75m32.575-3.75v3.75" stroke-width=".75" stroke="rgb(26.669312%, 26.669312%, 26.669312%)" class="D"/></svg>