<?xml version="1.0" standalone="no"?>
<svg xmlns="http://www.w3.org/2000/svg" width="500" height="500"><defs><clipPath id="clip-path-dot-color"><path d="M 18 178v 16h 8a 8 8, 0, 0, 0, 0 -16" transform="rotate(-90,26,186)"/><rect x="18" y="194" width="16" height="16" transform="rotate(0,26,202)"/><rect x="18" y="210" width="16" height="16" transform="rotate(0,26,218)"/><path d="M 18 226v 16h 16v -8a 8 8, 0, 0, 0, -8 -8" transform="rotate(180,26,234)"/><path d="M 18 274v 16h 8a 8 8, 0, 0, 0, 0 -16" transform="rotate(-90,26,282)"/><path d="M 18 290v 16h 8a 8 8, 0, 0, 0, 0 -16" transform="rotate(90,26,298)"/><path d="M 18 338v 16h 8a 8 8, 0, 0, 0, 0 -16" transform="rotate(180,26,346)"/><circle cx="42" cy="170" r="8" transform="rotate(0,42,170)"/><path d="M 34 226v 16h 16v -8a 8 8, 0, 0, 0, -8 -8" transform="rotate(0,42,234)"/><rect x="34" y="242" width="16" height="16" transform="rotate(0,42,250)"/><path d="M 34 258v 16h 16v -8a 8 8, 0, 0, 0, -8 -8" transform="rotate(180,42,266)"/><path d="M 34 306v 16h 8a 8 8, 0, 0, 0, 0 -16" transform="rotate(-90,42,314)"/><rect x="34" y="322" width="16" height="16" transform="rotate(0,42,330)"/><rect x="34" y="338" width="16" height="16" transform="rotate(0,42,346)"/><circle cx="58" cy="154" r="8" transform="rotate(0,58,154)"/><path d="M 50 178v 16h 8a 8 8, 0, 0, 0, 0 -16" transform="rotate(180,58,186)"/><circle cx="58" cy="218" r="8" transform="rotate(0,58,218)"/><path d="M 50 242v 16h 16v -8a 8 8, 0, 0, 0, -8 -8" transform="rotate(0,58,250)"/><path d="M 50 258v 16h 16v -8a 8 8, 0, 0, 0, -8 -8" transform="rotate(90,58,266)"/><circle cx="58" cy="298" r="8" transform="rotate(0,58,298)"/><rect x="50" y="322" width="16" height="16" transform="rotate(0,58,330)"/><rect x="50" y="338" width="16" height="16" transform="rotate(0,58,346)"/><path d="M 66 178v 16h 8a 8 8, 0, 0, 0, 0 -16" transform="rotate(0,74,186)"/><circle cx="74" cy="234" r="8" transform="rotate(0,74,234)"/><path d="M 66 306v 16h 16v -8a 8 8, 0, 0, 0, -8 -8" transform="rotate(-90,74,314)"/><rect x="66" y="322" width="16" height="16" transform="rotate(0,74,330)"/><path d="M 66 338v 16h 16v -8a 8 8, 0, 0, 0, -8 -8" transform="rotate(90,74,346)"/><path d="M 82 146v 16h 8a 8 8, 0, 0, 0, 0 -16" transform="rotate(180,90,154)"/><path d="M 82 194v 16h 16v -8a 8 8, 0, 0, 0, -8 -8" transform="rotate(-90,90,202)"/><path d="M 82 210v 16h 16v -8a 8 8, 0, 0, 0, -8 -8" transform="rotate(180,90,218)"/><circle cx="90" cy="250" r="8" transform="rotate(0,90,250)"/><circle cx="90" cy="282" r="8" transform="rotate(0,90,282)"/><rect x="82" y="306" width="16" height="16" transform="rotate(0,90,314)"/><rect x="98" y="146" width="16" height="16" transform="rotate(0,106,154)"/><path d="M 98 178v 16h 16v -8a 8 8, 0, 0, 0, -8 -8" transform="rotate(-90,106,186)"/><rect x="98" y="194" width="16" height="16" transform="rotate(0,106,202)"/><rect x="98" y="210" width="16" height="16" transform="rotate(0,106,218)"/><path d="M 98 226v 16h 8a 8 8, 0, 0, 0, 0 -16" transform="rotate(90,106,234)"/><rect x="98" y="306" width="16" height="16" transform="rotate(0,106,314)"/><rect x="98" y="322" width="16" height="16" transform="rotate(0,106,330)"/><path d="M 98 338v 16h 16v -8a 8 8, 0, 0, 0, -8 -8" transform="rotate(180,106,346)"/><path d="M 114 146v 16h 8a 8 8, 0, 0, 0, 0 -16" transform="rotate(0,122,154)"/><path d="M 114 178v 16h 8a 8 8, 0, 0, 0, 0 -16" transform="rotate(0,122,186)"/><path d="M 114 210v 16h 8a 8 8, 0, 0, 0, 0 -16" transform="rotate(0,122,218)"/><circle cx="122" cy="250" r="8" transform="rotate(0,122,250)"/><path d="M 114 274v 16h 8a 8 8, 0, 0, 0, 0 -16" transform="rotate(180,122,282)"/><rect x="114" y="306" width="16" height="16" transform="rotate(0,122,314)"/><path d="M 114 338v 16h 8a 8 8, 0, 0, 0, 0 -16" transform="rotate(0,122,346)"/><circle cx="138" cy="170" r="8" transform="rotate(0,138,170)"/><circle cx="138" cy="234" r="8" transform="rotate(0,138,234)"/><path d="M 130 274v 16h 16v -8a 8 8, 0, 0, 0, -8 -8" transform="rotate(0,138,282)"/><rect x="130" y="290" width="16" height="16" transform="rotate(0,138,298)"/><rect x="130" y="306" width="16" height="16" transform="rotate(0,138,314)"/><path d="M 130 322v 16h 16v -8a 8 8, 0, 0, 0, -8 -8" transform="rotate(180,138,330)"/><circle cx="154" cy="42" r="8" transform="rotate(0,154,42)"/><path d="M 146 82v 16h 8a 8 8, 0, 0, 0, 0 -16" transform="rotate(180,154,90)"/><circle cx="154" cy="122" r="8" transform="rotate(0,154,122)"/><circle cx="154" cy="154" r="8" transform="rotate(0,154,154)"/><path d="M 146 194v 16h 16v -8a 8 8, 0, 0, 0, -8 -8" transform="rotate(-90,154,202)"/><path d="M 146 210v 16h 8a 8 8, 0, 0, 0, 0 -16" transform="rotate(90,154,218)"/><circle cx="154" cy="266" r="8" transform="rotate(0,154,266)"/><rect x="146" y="290" width="16" height="16" transform="rotate(0,154,298)"/><rect x="146" y="306" width="16" height="16" transform="rotate(0,154,314)"/><rect x="146" y="322" width="16" height="16" transform="rotate(0,154,330)"/><rect x="146" y="338" width="16" height="16" transform="rotate(0,154,346)"/><path d="M 146 354v 16h 16v -8a 8 8, 0, 0, 0, -8 -8" transform="rotate(180,154,362)"/><path d="M 146 386v 16h 8a 8 8, 0, 0, 0, 0 -16" transform="rotate(-90,154,394)"/><path d="M 146 402v 16h 16v -8a 8 8, 0, 0, 0, -8 -8" transform="rotate(180,154,410)"/><circle cx="154" cy="442" r="8" transform="rotate(0,154,442)"/><path d="M 162 18v 16h 8a 8 8, 0, 0, 0, 0 -16" transform="rotate(180,170,26)"/><circle cx="170" cy="58" r="8" transform="rotate(0,170,58)"/><rect x="162" y="82" width="16" height="16" transform="rotate(0,170,90)"/><path d="M 162 98v 16h 16v -8a 8 8, 0, 0, 0, -8 -8" transform="rotate(180,170,106)"/><path d="M 162 130v 16h 8a 8 8, 0, 0, 0, 0 -16" transform="rotate(180,170,138)"/><rect x="162" y="194" width="16" height="16" transform="rotate(0,170,202)"/><path d="M 162 226v 16h 16v -8a 8 8, 0, 0, 0, -8 -8" transform="rotate(-90,170,234)"/><path d="M 162 242v 16h 16v -8a 8 8, 0, 0, 0, -8 -8" transform="rotate(180,170,250)"/><path d="M 162 274v 16h 8a 8 8, 0, 0, 0, 0 -16" transform="rotate(-90,170,282)"/><rect x="162" y="290" width="16" height="16" transform="rotate(0,170,298)"/><path d="M 162 338v 16h 16v -8a 8 8, 0, 0, 0, -8 -8" transform="rotate(0,170,346)"/><rect x="162" y="354" width="16" height="16" transform="rotate(0,170,362)"/><path d="M 162 370v 16h 8a 8 8, 0, 0, 0, 0 -16" transform="rotate(90,170,378)"/><rect x="162" y="402" width="16" height="16" transform="rotate(0,170,410)"/><path d="M 162 450v 16h 8a 8 8, 0, 0, 0, 0 -16" transform="rotate(-90,170,458)"/><path d="M 162 466v 16h 16v -8a 8 8, 0, 0, 0, -8 -8" transform="rotate(180,170,474)"/><rect x="178" y="18" width="16" height="16" transform="rotate(0,186,26)"/><path d="M 178 34v 16h 8a 8 8, 0, 0, 0, 0 -16" transform="rotate(90,186,42)"/><path d="M 178 66v 16h 8a 8 8, 0, 0, 0, 0 -16" transform="rotate(-90,186,74)"/><rect x="178" y="82" width="16" height="16" transform="rotate(0,186,90)"/><rect x="178" y="98" width="16" height="16" transform="rotate(0,186,106)"/><rect x="178" y="114" width="16" height="16" transform="rotate(0,186,122)"/><rect x="178" y="130" width="16" height="16" transform="rotate(0,186,138)"/><rect x="178" y="146" width="16" height="16" transform="rotate(0,186,154)"/><rect x="178" y="162" width="16" height="16" transform="rotate(0,186,170)"/><rect x="178" y="178" width="16" height="16" transform="rotate(0,186,186)"/><path d="M 178 194v 16h 16v -8a 8 8, 0, 0, 0, -8 -8" transform="rotate(90,186,202)"/><rect x="178" y="226" width="16" height="16" transform="rotate(0,186,234)"/><path d="M 178 242v 16h 16v -8a 8 8, 0, 0, 0, -8 -8" transform="rotate(90,186,250)"/><rect x="178" y="290" width="16" height="16" transform="rotate(0,186,298)"/><rect x="178" y="354" width="16" height="16" transform="rotate(0,186,362)"/><rect x="178" y="402" width="16" height="16" transform="rotate(0,186,410)"/><rect x="178" y="418" width="16" height="16" transform="rotate(0,186,426)"/><path d="M 178 434v 16h 8a 8 8, 0, 0, 0, 0 -16" transform="rotate(90,186,442)"/><rect x="178" y="466" width="16" height="16" transform="rotate(0,186,474)"/><path d="M 194 18v 16h 8a 8 8, 0, 0, 0, 0 -16" transform="rotate(0,202,26)"/><rect x="194" y="146" width="16" height="16" transform="rotate(0,202,154)"/><rect x="194" y="226" width="16" height="16" transform="rotate(0,202,234)"/><path d="M 194 258v 16h 8a 8 8, 0, 0, 0, 0 -16" transform="rotate(-90,202,266)"/><rect x="194" y="274" width="16" height="16" transform="rotate(0,202,282)"/><rect x="194" y="290" width="16" height="16" transform="rotate(0,202,298)"/><path d="M 194 306v 16h 8a 8 8, 0, 0, 0, 0 -16" transform="rotate(90,202,314)"/><path d="M 194 354v 16h 8a 8 8, 0, 0, 0, 0 -16" transform="rotate(0,202,362)"/><path d="M 194 402v 16h 16v -8a 8 8, 0, 0, 0, -8 -8" transform="rotate(0,202,410)"/><rect x="194" y="418" width="16" height="16" transform="rotate(0,202,426)"/><path d="M 194 450v 16h 8a 8 8, 0, 0, 0, 0 -16" transform="rotate(-90,202,458)"/><rect x="194" y="466" width="16" height="16" transform="rotate(0,202,474)"/><circle cx="218" cy="42" r="8" transform="rotate(0,218,42)"/><circle cx="218" cy="74" r="8" transform="rotate(0,218,74)"/><path d="M 210 98v 16h 16v -8a 8 8, 0, 0, 0, -8 -8" transform="rotate(-90,218,106)"/><rect x="210" y="114" width="16" height="16" transform="rotate(0,218,122)"/><rect x="210" y="130" width="16" height="16" transform="rotate(0,218,138)"/><rect x="210" y="146" width="16" height="16" transform="rotate(0,218,154)"/><path d="M 210 178v 16h 16v -8a 8 8, 0, 0, 0, -8 -8" transform="rotate(-90,218,186)"/><rect x="210" y="194" width="16" height="16" transform="rotate(0,218,202)"/><rect x="210" y="210" width="16" height="16" transform="rotate(0,218,218)"/><path d="M 210 226v 16h 16v -8a 8 8, 0, 0, 0, -8 -8" transform="rotate(90,218,234)"/><rect x="210" y="274" width="16" height="16" transform="rotate(0,218,282)"/><path d="M 210 290v 16h 16v -8a 8 8, 0, 0, 0, -8 -8" transform="rotate(90,218,298)"/><circle cx="218" cy="330" r="8" transform="rotate(0,218,330)"/><circle cx="218" cy="394" r="8" transform="rotate(0,218,394)"/><path d="M 210 418v 16h 8a 8 8, 0, 0, 0, 0 -16" transform="rotate(0,218,426)"/><rect x="210" y="466" width="16" height="16" transform="rotate(0,218,474)"/><circle cx="234" cy="58" r="8" transform="rotate(0,234,58)"/><path d="M 226 82v 16h 16v -8a 8 8, 0, 0, 0, -8 -8" transform="rotate(-90,234,90)"/><path d="M 226 98v 16h 16v -8a 8 8, 0, 0, 0, -8 -8" transform="rotate(90,234,106)"/><path d="M 226 146v 16h 16v -8a 8 8, 0, 0, 0, -8 -8" transform="rotate(0,234,154)"/><rect x="226" y="162" width="16" height="16" transform="rotate(0,234,170)"/><rect x="226" y="178" width="16" height="16" transform="rotate(0,234,186)"/><path d="M 226 258v 16h 16v -8a 8 8, 0, 0, 0, -8 -8" transform="rotate(-90,234,266)"/><path d="M 226 274v 16h 16v -8a 8 8, 0, 0, 0, -8 -8" transform="rotate(90,234,282)"/><path d="M 226 370v 16h 8a 8 8, 0, 0, 0, 0 -16" transform="rotate(180,234,378)"/><path d="M 226 402v 16h 8a 8 8, 0, 0, 0, 0 -16" transform="rotate(180,234,410)"/><circle cx="234" cy="442" r="8" transform="rotate(0,234,442)"/><rect x="226" y="466" width="16" height="16" transform="rotate(0,234,474)"/><circle cx="250" cy="42" r="8" transform="rotate(0,250,42)"/><path d="M 242 82v 16h 8a 8 8, 0, 0, 0, 0 -16" transform="rotate(0,250,90)"/><circle cx="250" cy="122" r="8" transform="rotate(0,250,122)"/><rect x="242" y="162" width="16" height="16" transform="rotate(0,250,170)"/><rect x="242" y="178" width="16" height="16" transform="rotate(0,250,186)"/><rect x="242" y="194" width="16" height="16" transform="rotate(0,250,202)"/><rect x="242" y="210" width="16" height="16" transform="rotate(0,250,218)"/><path d="M 242 226v 16h 8a 8 8, 0, 0, 0, 0 -16" transform="rotate(90,250,234)"/><rect x="242" y="258" width="16" height="16" transform="rotate(0,250,266)"/><circle cx="250" cy="314" r="8" transform="rotate(0,250,314)"/><path d="M 242 338v 16h 8a 8 8, 0, 0, 0, 0 -16" transform="rotate(-90,250,346)"/><rect x="242" y="354" width="16" height="16" transform="rotate(0,250,362)"/><path d="M 242 370v 16h 16v -8a 8 8, 0, 0, 0, -8 -8" transform="rotate(90,250,378)"/><path d="M 242 402v 16h 8a 8 8, 0, 0, 0, 0 -16" transform="rotate(0,250,410)"/><path d="M 242 450v 16h 8a 8 8, 0, 0, 0, 0 -16" transform="rotate(-90,250,458)"/><path d="M 242 466v 16h 16v -8a 8 8, 0, 0, 0, -8 -8" transform="rotate(90,250,474)"/><path d="M 258 18v 16h 8a 8 8, 0, 0, 0, 0 -16" transform="rotate(180,266,26)"/><circle cx="266" cy="74" r="8" transform="rotate(0,266,74)"/><circle cx="266" cy="106" r="8" transform="rotate(0,266,106)"/><path d="M 258 130v 16h 16v -8a 8 8, 0, 0, 0, -8 -8" transform="rotate(-90,266,138)"/><rect x="258" y="146" width="16" height="16" transform="rotate(0,266,154)"/><path d="M 258 162v 16h 16v -8a 8 8, 0, 0, 0, -8 -8" transform="rotate(90,266,170)"/><path d="M 258 194v 16h 16v -8a 8 8, 0, 0, 0, -8 -8" transform="rotate(0,266,202)"/><path d="M 258 210v 16h 16v -8a 8 8, 0, 0, 0, -8 -8" transform="rotate(90,266,218)"/><rect x="258" y="258" width="16" height="16" transform="rotate(0,266,266)"/><path d="M 258 290v 16h 8a 8 8, 0, 0, 0, 0 -16" transform="rotate(180,266,298)"/><path d="M 258 354v 16h 8a 8 8, 0, 0, 0, 0 -16" transform="rotate(0,266,362)"/><circle cx="266" cy="394" r="8" transform="rotate(0,266,394)"/><circle cx="266" cy="426" r="8" transform="rotate(0,266,426)"/><rect x="274" y="18" width="16" height="16" transform="rotate(0,282,26)"/><rect x="274" y="34" width="16" height="16" transform="rotate(0,282,42)"/><path d="M 274 50v 16h 8a 8 8, 0, 0, 0, 0 -16" transform="rotate(90,282,58)"/><path d="M 274 114v 16h 8a 8 8, 0, 0, 0, 0 -16" transform="rotate(-90,282,122)"/><rect x="274" y="130" width="16" height="16" transform="rotate(0,282,138)"/><path d="M 274 146v 16h 16v -8a 8 8, 0, 0, 0, -8 -8" transform="rotate(90,282,154)"/><path d="M 274 258v 16h 8a 8 8, 0, 0, 0, 0 -16" transform="rotate(0,282,266)"/><path d="M 274 290v 16h 16v -8a 8 8, 0, 0, 0, -8 -8" transform="rotate(0,282,298)"/><rect x="274" y="306" width="16" height="16" transform="rotate(0,282,314)"/><path d="M 274 322v 16h 8a 8 8, 0, 0, 0, 0 -16" transform="rotate(90,282,330)"/><circle cx="282" cy="458" r="8" transform="rotate(0,282,458)"/><path d="M 290 18v 16h 16v -8a 8 8, 0, 0, 0, -8 -8" transform="rotate(0,298,26)"/><path d="M 290 34v 16h 16v -8a 8 8, 0, 0, 0, -8 -8" transform="rotate(90,298,42)"/><path d="M 290 82v 16h 8a 8 8, 0, 0, 0, 0 -16" transform="rotate(180,298,90)"/><path d="M 290 178v 16h 8a 8 8, 0, 0, 0, 0 -16" transform="rotate(180,298,186)"/><path d="M 290 226v 16h 8a 8 8, 0, 0, 0, 0 -16" transform="rotate(180,298,234)"/><path d="M 290 338v 16h 16v -8a 8 8, 0, 0, 0, -8 -8" transform="rotate(-90,298,346)"/><rect x="290" y="354" width="16" height="16" transform="rotate(0,298,362)"/><path d="M 290 370v 16h 8a 8 8, 0, 0, 0, 0 -16" transform="rotate(90,298,378)"/><path d="M 290 402v 16h 16v -8a 8 8, 0, 0, 0, -8 -8" transform="rotate(-90,298,410)"/><rect x="290" y="418" width="16" height="16" transform="rotate(0,298,426)"/><path d="M 290 434v 16h 8a 8 8, 0, 0, 0, 0 -16" transform="rotate(90,298,442)"/><path d="M 290 466v 16h 8a 8 8, 0, 0, 0, 0 -16" transform="rotate(180,298,474)"/><path d="M 306 50v 16h 16v -8a 8 8, 0, 0, 0, -8 -8" transform="rotate(-90,314,58)"/><rect x="306" y="66" width="16" height="16" transform="rotate(0,314,74)"/><rect x="306" y="82" width="16" height="16" transform="rotate(0,314,90)"/><path d="M 306 114v 16h 8a 8 8, 0, 0, 0, 0 -16" transform="rotate(-90,314,122)"/><rect x="306" y="130" width="16" height="16" transform="rotate(0,314,138)"/><path d="M 306 146v 16h 8a 8 8, 0, 0, 0, 0 -16" transform="rotate(90,314,154)"/><rect x="306" y="178" width="16" height="16" transform="rotate(0,314,186)"/><path d="M 306 226v 16h 16v -8a 8 8, 0, 0, 0, -8 -8" transform="rotate(0,314,234)"/><rect x="306" y="242" width="16" height="16" transform="rotate(0,314,250)"/><rect x="306" y="258" width="16" height="16" transform="rotate(0,314,266)"/><path d="M 306 274v 16h 16v -8a 8 8, 0, 0, 0, -8 -8" transform="rotate(180,314,282)"/><circle cx="314" cy="314" r="8" transform="rotate(0,314,314)"/><path d="M 306 338v 16h 8a 8 8, 0, 0, 0, 0 -16" transform="rotate(0,314,346)"/><path d="M 306 402v 16h 16v -8a 8 8, 0, 0, 0, -8 -8" transform="rotate(0,314,410)"/><rect x="306" y="418" width="16" height="16" transform="rotate(0,314,426)"/><rect x="306" y="466" width="16" height="16" transform="rotate(0,314,474)"/><path d="M 322 50v 16h 8a 8 8, 0, 0, 0, 0 -16" transform="rotate(0,330,58)"/><rect x="322" y="82" width="16" height="16" transform="rotate(0,330,90)"/><path d="M 322 98v 16h 8a 8 8, 0, 0, 0, 0 -16" transform="rotate(90,330,106)"/><rect x="322" y="130" width="16" height="16" transform="rotate(0,330,138)"/><path d="M 322 162v 16h 16v -8a 8 8, 0, 0, 0, -8 -8" transform="rotate(-90,330,170)"/><rect x="322" y="178" width="16" height="16" transform="rotate(0,330,186)"/><path d="M 322 194v 16h 16v -8a 8 8, 0, 0, 0, -8 -8" transform="rotate(180,330,202)"/><rect x="322" y="242" width="16" height="16" transform="rotate(0,330,250)"/><rect x="322" y="274" width="16" height="16" transform="rotate(0,330,282)"/><path d="M 322 290v 16h 16v -8a 8 8, 0, 0, 0, -8 -8" transform="rotate(180,330,298)"/><path d="M 322 386v 16h 8a 8 8, 0, 0, 0, 0 -16" transform="rotate(180,330,394)"/><rect x="322" y="418" width="16" height="16" transform="rotate(0,330,426)"/><path d="M 322 450v 16h 8a 8 8, 0, 0, 0, 0 -16" transform="rotate(-90,330,458)"/><path d="M 322 466v 16h 16v -8a 8 8, 0, 0, 0, -8 -8" transform="rotate(90,330,474)"/><path d="M 338 18v 16h 8a 8 8, 0, 0, 0, 0 -16" transform="rotate(-90,346,26)"/><path d="M 338 34v 16h 8a 8 8, 0, 0, 0, 0 -16" transform="rotate(90,346,42)"/><path d="M 338 82v 16h 8a 8 8, 0, 0, 0, 0 -16" transform="rotate(0,346,90)"/><path d="M 338 114v 16h 8a 8 8, 0, 0, 0, 0 -16" transform="rotate(-90,346,122)"/><path d="M 338 130v 16h 16v -8a 8 8, 0, 0, 0, -8 -8" transform="rotate(90,346,138)"/><rect x="338" y="162" width="16" height="16" transform="rotate(0,346,170)"/><path d="M 338 194v 16h 8a 8 8, 0, 0, 0, 0 -16" transform="rotate(0,346,202)"/><path d="M 338 226v 16h 16v -8a 8 8, 0, 0, 0, -8 -8" transform="rotate(-90,346,234)"/><path d="M 338 242v 16h 16v -8a 8 8, 0, 0, 0, -8 -8" transform="rotate(90,346,250)"/><rect x="338" y="274" width="16" height="16" transform="rotate(0,346,282)"/><rect x="338" y="290" width="16" height="16" transform="rotate(0,346,298)"/><rect x="338" y="306" width="16" height="16" transform="rotate(0,346,314)"/><rect x="338" y="322" width="16" height="16" transform="rotate(0,346,330)"/><rect x="338" y="338" width="16" height="16" transform="rotate(0,346,346)"/><rect x="338" y="354" width="16" height="16" transform="rotate(0,346,362)"/><rect x="338" y="370" width="16" height="16" transform="rotate(0,346,378)"/><rect x="338" y="386" width="16" height="16" transform="rotate(0,346,394)"/><rect x="338" y="402" width="16" height="16" transform="rotate(0,346,410)"/><path d="M 338 418v 16h 16v -8a 8 8, 0, 0, 0, -8 -8" transform="rotate(90,346,426)"/><path d="M 354 146v 16h 8a 8 8, 0, 0, 0, 0 -16" transform="rotate(-90,362,154)"/><rect x="354" y="162" width="16" height="16" transform="rotate(0,362,170)"/><path d="M 354 178v 16h 8a 8 8, 0, 0, 0, 0 -16" transform="rotate(90,362,186)"/><path d="M 354 210v 16h 8a 8 8, 0, 0, 0, 0 -16" transform="rotate(-90,362,218)"/><path d="M 354 226v 16h 16v -8a 8 8, 0, 0, 0, -8 -8" transform="rotate(90,362,234)"/><path d="M 354 258v 16h 16v -8a 8 8, 0, 0, 0, -8 -8" transform="rotate(-90,362,266)"/><rect x="354" y="274" width="16" height="16" transform="rotate(0,362,282)"/><rect x="354" y="290" width="16" height="16" transform="rotate(0,362,298)"/><rect x="354" y="306" width="16" height="16" transform="rotate(0,362,314)"/><rect x="354" y="322" width="16" height="16" transform="rotate(0,362,330)"/><rect x="354" y="338" width="16" height="16" transform="rotate(0,362,346)"/><rect x="354" y="402" width="16" height="16" transform="rotate(0,362,410)"/><circle cx="362" cy="442" r="8" transform="rotate(0,362,442)"/><path d="M 354 466v 16h 8a 8 8, 0, 0, 0, 0 -16" transform="rotate(180,362,474)"/><path d="M 370 242v 16h 8a 8 8, 0, 0, 0, 0 -16" transform="rotate(-90,378,250)"/><path d="M 370 258v 16h 16v -8a 8 8, 0, 0, 0, -8 -8" transform="rotate(90,378,266)"/><rect x="370" y="290" width="16" height="16" transform="rotate(0,378,298)"/><rect x="370" y="322" width="16" height="16" transform="rotate(0,378,330)"/><rect x="370" y="338" width="16" height="16" transform="rotate(0,378,346)"/><circle cx="378" cy="378" r="8" transform="rotate(0,378,378)"/><rect x="370" y="402" width="16" height="16" transform="rotate(0,378,410)"/><path d="M 370 466v 16h 8a 8 8, 0, 0, 0, 0 -16" transform="rotate(0,378,474)"/><path d="M 386 178v 16h 16v -8a 8 8, 0, 0, 0, -8 -8" transform="rotate(-90,394,186)"/><rect x="386" y="194" width="16" height="16" transform="rotate(0,394,202)"/><rect x="386" y="210" width="16" height="16" transform="rotate(0,394,218)"/><path d="M 386 226v 16h 8a 8 8, 0, 0, 0, 0 -16" transform="rotate(90,394,234)"/><rect x="386" y="290" width="16" height="16" transform="rotate(0,394,298)"/><rect x="386" y="306" width="16" height="16" transform="rotate(0,394,314)"/><rect x="386" y="322" width="16" height="16" transform="rotate(0,394,330)"/><rect x="386" y="338" width="16" height="16" transform="rotate(0,394,346)"/><rect x="386" y="402" width="16" height="16" transform="rotate(0,394,410)"/><path d="M 386 418v 16h 8a 8 8, 0, 0, 0, 0 -16" transform="rotate(90,394,426)"/><circle cx="394" cy="458" r="8" transform="rotate(0,394,458)"/><path d="M 402 146v 16h 8a 8 8, 0, 0, 0, 0 -16" transform="rotate(-90,410,154)"/><rect x="402" y="162" width="16" height="16" transform="rotate(0,410,170)"/><rect x="402" y="178" width="16" height="16" transform="rotate(0,410,186)"/><rect x="402" y="194" width="16" height="16" transform="rotate(0,410,202)"/><path d="M 402 210v 16h 16v -8a 8 8, 0, 0, 0, -8 -8" transform="rotate(90,410,218)"/><path d="M 402 242v 16h 8a 8 8, 0, 0, 0, 0 -16" transform="rotate(-90,410,250)"/><rect x="402" y="258" width="16" height="16" transform="rotate(0,410,266)"/><rect x="402" y="274" width="16" height="16" transform="rotate(0,410,282)"/><rect x="402" y="290" width="16" height="16" transform="rotate(0,410,298)"/><rect x="402" y="306" width="16" height="16" transform="rotate(0,410,314)"/><rect x="402" y="322" width="16" height="16" transform="rotate(0,410,330)"/><rect x="402" y="338" width="16" height="16" transform="rotate(0,410,346)"/><rect x="402" y="354" width="16" height="16" transform="rotate(0,410,362)"/><rect x="402" y="370" width="16" height="16" transform="rotate(0,410,378)"/><rect x="402" y="386" width="16" height="16" transform="rotate(0,410,394)"/><path d="M 402 402v 16h 16v -8a 8 8, 0, 0, 0, -8 -8" transform="rotate(90,410,410)"/><rect x="418" y="162" width="16" height="16" transform="rotate(0,426,170)"/><rect x="418" y="258" width="16" height="16" transform="rotate(0,426,266)"/><path d="M 418 290v 16h 8a 8 8, 0, 0, 0, 0 -16" transform="rotate(0,426,298)"/><path d="M 418 386v 16h 8a 8 8, 0, 0, 0, 0 -16" transform="rotate(0,426,394)"/><path d="M 418 418v 16h 8a 8 8, 0, 0, 0, 0 -16" transform="rotate(-90,426,426)"/><path d="M 418 434v 16h 16v -8a 8 8, 0, 0, 0, -8 -8" transform="rotate(180,426,442)"/><path d="M 418 466v 16h 8a 8 8, 0, 0, 0, 0 -16" transform="rotate(180,426,474)"/><path d="M 434 162v 16h 8a 8 8, 0, 0, 0, 0 -16" transform="rotate(0,442,170)"/><circle cx="442" cy="218" r="8" transform="rotate(0,442,218)"/><path d="M 434 242v 16h 8a 8 8, 0, 0, 0, 0 -16" transform="rotate(-90,442,250)"/><path d="M 434 258v 16h 16v -8a 8 8, 0, 0, 0, -8 -8" transform="rotate(90,442,266)"/><path d="M 434 306v 16h 8a 8 8, 0, 0, 0, 0 -16" transform="rotate(-90,442,314)"/><rect x="434" y="322" width="16" height="16" transform="rotate(0,442,330)"/><rect x="434" y="338" width="16" height="16" transform="rotate(0,442,346)"/><path d="M 434 354v 16h 8a 8 8, 0, 0, 0, 0 -16" transform="rotate(90,442,362)"/><path d="M 434 434v 16h 16v -8a 8 8, 0, 0, 0, -8 -8" transform="rotate(0,442,442)"/><rect x="434" y="450" width="16" height="16" transform="rotate(0,442,458)"/><rect x="434" y="466" width="16" height="16" transform="rotate(0,442,474)"/><circle cx="458" cy="154" r="8" transform="rotate(0,458,154)"/><path d="M 450 290v 16h 8a 8 8, 0, 0, 0, 0 -16" transform="rotate(180,458,298)"/><rect x="450" y="322" width="16" height="16" transform="rotate(0,458,330)"/><rect x="450" y="338" width="16" height="16" transform="rotate(0,458,346)"/><path d="M 450 370v 16h 8a 8 8, 0, 0, 0, 0 -16" transform="rotate(-90,458,378)"/><path d="M 450 386v 16h 8a 8 8, 0, 0, 0, 0 -16" transform="rotate(90,458,394)"/><circle cx="458" cy="426" r="8" transform="rotate(0,458,426)"/><rect x="450" y="450" width="16" height="16" transform="rotate(0,458,458)"/><path d="M 450 466v 16h 16v -8a 8 8, 0, 0, 0, -8 -8" transform="rotate(90,458,474)"/><circle cx="474" cy="170" r="8" transform="rotate(0,474,170)"/><path d="M 466 210v 16h 8a 8 8, 0, 0, 0, 0 -16" transform="rotate(-90,474,218)"/><rect x="466" y="226" width="16" height="16" transform="rotate(0,474,234)"/><path d="M 466 242v 16h 8a 8 8, 0, 0, 0, 0 -16" transform="rotate(90,474,250)"/><path d="M 466 290v 16h 8a 8 8, 0, 0, 0, 0 -16" transform="rotate(0,474,298)"/><path d="M 466 322v 16h 16v -8a 8 8, 0, 0, 0, -8 -8" transform="rotate(0,474,330)"/><path d="M 466 338v 16h 16v -8a 8 8, 0, 0, 0, -8 -8" transform="rotate(90,474,346)"/><circle cx="474" cy="410" r="8" transform="rotate(0,474,410)"/><path d="M 466 450v 16h 8a 8 8, 0, 0, 0, 0 -16" transform="rotate(0,474,458)"/></clipPath><clipPath id="clip-path-corners-square-color-0-0"><path clip-rule="evenodd" d="M 18 58v 32a 40 40, 0, 0, 0, 40 40h 32a 40 40, 0, 0, 0, 40 -40v -32a 40 40, 0, 0, 0, -40 -40h -32a 40 40, 0, 0, 0, -40 40M 58 34h 32a 24 24, 0, 0, 1, 24 24v 32a 24 24, 0, 0, 1, -24 24h -32a 24 24, 0, 0, 1, -24 -24v -32a 24 24, 0, 0, 1, 24 -24" transform="rotate(0,74,74)"/></clipPath><clipPath id="clip-path-corners-dot-color-0-0"><circle cx="74" cy="74" r="24" transform="rotate(0,74,74)"/></clipPath><clipPath id="clip-path-corners-square-color-1-0"><path clip-rule="evenodd" d="M 370 58v 32a 40 40, 0, 0, 0, 40 40h 32a 40 40, 0, 0, 0, 40 -40v -32a 40 40, 0, 0, 0, -40 -40h -32a 40 40, 0, 0, 0, -40 40M 410 34h 32a 24 24, 0, 0, 1, 24 24v 32a 24 24, 0, 0, 1, -24 24h -32a 24 24, 0, 0, 1, -24 -24v -32a 24 24, 0, 0, 1, 24 -24" transform="rotate(90,426,74)"/></clipPath><clipPath id="clip-path-corners-dot-color-1-0"><circle cx="426" cy="74" r="24" transform="rotate(90,426,74)"/></clipPath><clipPath id="clip-path-corners-square-color-0-1"><path clip-rule="evenodd" d="M 18 410v 32a 40 40, 0, 0, 0, 40 40h 32a 40 40, 0, 0, 0, 40 -40v -32a 40 40, 0, 0, 0, -40 -40h -32a 40 40, 0, 0, 0, -40 40M 58 386h 32a 24 24, 0, 0, 1, 24 24v 32a 24 24, 0, 0, 1, -24 24h -32a 24 24, 0, 0, 1, -24 -24v -32a 24 24, 0, 0, 1, 24 -24" transform="rotate(-90,74,426)"/></clipPath><clipPath id="clip-path-corners-dot-color-0-1"><circle cx="74" cy="426" r="24" transform="rotate(-90,74,426)"/></clipPath></defs><rect x="0" y="0" height="500" width="500" clip-path="url('#clip-path-background-color')" fill="#fff"/><rect x="0" y="0" height="500" width="500" clip-path="url('#clip-path-dot-color')" fill="#000000"/><rect x="18" y="18" height="112" width="112" clip-path="url('#clip-path-corners-square-color-0-0')" fill="#000000"/><rect x="50" y="50" height="48" width="48" clip-path="url('#clip-path-corners-dot-color-0-0')" fill="#000000"/><rect x="370" y="18" height="112" width="112" clip-path="url('#clip-path-corners-square-color-1-0')" fill="#000000"/><rect x="402" y="50" height="48" width="48" clip-path="url('#clip-path-corners-dot-color-1-0')" fill="#000000"/><rect x="18" y="370" height="112" width="112" clip-path="url('#clip-path-corners-square-color-0-1')" fill="#000000"/><rect x="50" y="402" height="48" width="48" clip-path="url('#clip-path-corners-dot-color-0-1')" fill="#000000"/></svg>