<?xml version="1.0" standalone="no"?>
<svg xmlns="http://www.w3.org/2000/svg" width="500" height="500"><defs><clipPath id="clip-path-dot-color"><path d="M 19 159v 14h 7a 7 7, 0, 0, 0, 0 -14" transform="rotate(180,26,166)"/><circle cx="26" cy="208" r="7" transform="rotate(0,26,208)"/><path d="M 19 257v 14h 7a 7 7, 0, 0, 0, 0 -14" transform="rotate(-90,26,264)"/><path d="M 19 271v 14h 7a 7 7, 0, 0, 0, 0 -14" transform="rotate(90,26,278)"/><path d="M 33 145v 14h 7a 7 7, 0, 0, 0, 0 -14" transform="rotate(-90,40,152)"/><rect x="33" y="159" width="14" height="14" transform="rotate(0,40,166)"/><path d="M 33 229v 14h 7a 7 7, 0, 0, 0, 0 -14" transform="rotate(-90,40,236)"/><path d="M 33 243v 14h 7a 7 7, 0, 0, 0, 0 -14" transform="rotate(90,40,250)"/><path d="M 33 299v 14h 7a 7 7, 0, 0, 0, 0 -14" transform="rotate(-90,40,306)"/><rect x="33" y="313" width="14" height="14" transform="rotate(0,40,320)"/><path d="M 33 327v 14h 7a 7 7, 0, 0, 0, 0 -14" transform="rotate(90,40,334)"/><rect x="47" y="159" width="14" height="14" transform="rotate(0,54,166)"/><path d="M 47 173v 14h 7a 7 7, 0, 0, 0, 0 -14" transform="rotate(90,54,180)"/><path d="M 47 215v 14h 7a 7 7, 0, 0, 0, 0 -14" transform="rotate(180,54,222)"/><circle cx="54" cy="264" r="7" transform="rotate(0,54,264)"/><path d="M 47 313v 14h 7a 7 7, 0, 0, 0, 0 -14" transform="rotate(0,54,320)"/><circle cx="54" cy="362" r="7" transform="rotate(0,54,362)"/><path d="M 61 131v 14h 7a 7 7, 0, 0, 0, 0 -14" transform="rotate(-90,68,138)"/><rect x="61" y="145" width="14" height="14" transform="rotate(0,68,152)"/><rect x="61" y="159" width="14" height="14" transform="rotate(0,68,166)"/><circle cx="68" cy="194" r="7" transform="rotate(0,68,194)"/><path d="M 61 215v 14h 7a 7 7, 0, 0, 0, 0 -14" transform="rotate(0,68,222)"/><path d="M 61 243v 14h 7a 7 7, 0, 0, 0, 0 -14" transform="rotate(180,68,250)"/><path d="M 61 285v 14h 7a 7 7, 0, 0, 0, 0 -14" transform="rotate(180,68,292)"/><path d="M 75 159v 14h 14v -7a 7 7, 0, 0, 0, -7 -7" transform="rotate(0,82,166)"/><path d="M 75 173v 14h 7a 7 7, 0, 0, 0, 0 -14" transform="rotate(90,82,180)"/><path d="M 75 201v 14h 7a 7 7, 0, 0, 0, 0 -14" transform="rotate(180,82,208)"/><path d="M 75 229v 14h 7a 7 7, 0, 0, 0, 0 -14" transform="rotate(-90,82,236)"/><rect x="75" y="243" width="14" height="14" transform="rotate(0,82,250)"/><path d="M 75 257v 14h 14v -7a 7 7, 0, 0, 0, -7 -7" transform="rotate(180,82,264)"/><rect x="75" y="285" width="14" height="14" transform="rotate(0,82,292)"/><path d="M 75 313v 14h 14v -7a 7 7, 0, 0, 0, -7 -7" transform="rotate(-90,82,320)"/><path d="M 75 327v 14h 7a 7 7, 0, 0, 0, 0 -14" transform="rotate(90,82,334)"/><path d="M 89 131v 14h 7a 7 7, 0, 0, 0, 0 -14" transform="rotate(180,96,138)"/><path d="M 89 187v 14h 14v -7a 7 7, 0, 0, 0, -7 -7" transform="rotate(-90,96,194)"/><rect x="89" y="201" width="14" height="14" transform="rotate(0,96,208)"/><path d="M 89 215v 14h 14v -7a 7 7, 0, 0, 0, -7 -7" transform="rotate(180,96,222)"/><rect x="89" y="243" width="14" height="14" transform="rotate(0,96,250)"/><path d="M 89 257v 14h 14v -7a 7 7, 0, 0, 0, -7 -7" transform="rotate(90,96,264)"/><path d="M 89 285v 14h 7a 7 7, 0, 0, 0, 0 -14" transform="rotate(0,96,292)"/><path d="M 89 313v 14h 7a 7 7, 0, 0, 0, 0 -14" transform="rotate(0,96,320)"/><rect x="103" y="131" width="14" height="14" transform="rotate(0,110,138)"/><path d="M 103 159v 14h 7a 7 7, 0, 0, 0, 0 -14" transform="rotate(180,110,166)"/><path d="M 103 187v 14h 7a 7 7, 0, 0, 0, 0 -14" transform="rotate(0,110,194)"/><rect x="103" y="215" width="14" height="14" transform="rotate(0,110,222)"/><rect x="103" y="243" width="14" height="14" transform="rotate(0,110,250)"/><circle cx="110" cy="278" r="7" transform="rotate(0,110,278)"/><path d="M 103 299v 14h 7a 7 7, 0, 0, 0, 0 -14" transform="rotate(180,110,306)"/><circle cx="110" cy="334" r="7" transform="rotate(0,110,334)"/><circle cx="110" cy="362" r="7" transform="rotate(0,110,362)"/><path d="M 117 131v 14h 7a 7 7, 0, 0, 0, 0 -14" transform="rotate(0,124,138)"/><rect x="117" y="159" width="14" height="14" transform="rotate(0,124,166)"/><path d="M 117 173v 14h 14v -7a 7 7, 0, 0, 0, -7 -7" transform="rotate(180,124,180)"/><path d="M 117 201v 14h 14v -7a 7 7, 0, 0, 0, -7 -7" transform="rotate(-90,124,208)"/><path d="M 117 215v 14h 14v -7a 7 7, 0, 0, 0, -7 -7" transform="rotate(90,124,222)"/><rect x="117" y="243" width="14" height="14" transform="rotate(0,124,250)"/><path d="M 117 285v 14h 7a 7 7, 0, 0, 0, 0 -14" transform="rotate(-90,124,292)"/><rect x="117" y="299" width="14" height="14" transform="rotate(0,124,306)"/><path d="M 117 341v 14h 7a 7 7, 0, 0, 0, 0 -14" transform="rotate(180,124,348)"/><path d="M 131 33v 14h 7a 7 7, 0, 0, 0, 0 -14" transform="rotate(-90,138,40)"/><path d="M 131 47v 14h 7a 7 7, 0, 0, 0, 0 -14" transform="rotate(90,138,54)"/><circle cx="138" cy="110" r="7" transform="rotate(0,138,110)"/><path d="M 131 145v 14h 7a 7 7, 0, 0, 0, 0 -14" transform="rotate(-90,138,152)"/><rect x="131" y="159" width="14" height="14" transform="rotate(0,138,166)"/><path d="M 131 173v 14h 14v -7a 7 7, 0, 0, 0, -7 -7" transform="rotate(90,138,180)"/><path d="M 131 201v 14h 7a 7 7, 0, 0, 0, 0 -14" transform="rotate(0,138,208)"/><path d="M 131 243v 14h 7a 7 7, 0, 0, 0, 0 -14" transform="rotate(0,138,250)"/><path d="M 131 299v 14h 7a 7 7, 0, 0, 0, 0 -14" transform="rotate(0,138,306)"/><rect x="131" y="341" width="14" height="14" transform="rotate(0,138,348)"/><path d="M 131 355v 14h 14v -7a 7 7, 0, 0, 0, -7 -7" transform="rotate(180,138,362)"/><path d="M 131 383v 14h 14v -7a 7 7, 0, 0, 0, -7 -7" transform="rotate(-90,138,390)"/><path d="M 131 397v 14h 7a 7 7, 0, 0, 0, 0 -14" transform="rotate(90,138,404)"/><path d="M 131 425v 14h 7a 7 7, 0, 0, 0, 0 -14" transform="rotate(180,138,432)"/><path d="M 145 19v 14h 7a 7 7, 0, 0, 0, 0 -14" transform="rotate(180,152,26)"/><path d="M 145 61v 14h 7a 7 7, 0, 0, 0, 0 -14" transform="rotate(-90,152,68)"/><rect x="145" y="75" width="14" height="14" transform="rotate(0,152,82)"/><path d="M 145 89v 14h 14v -7a 7 7, 0, 0, 0, -7 -7" transform="rotate(180,152,96)"/><path d="M 145 117v 14h 14v -7a 7 7, 0, 0, 0, -7 -7" transform="rotate(-90,152,124)"/><path d="M 145 131v 14h 7a 7 7, 0, 0, 0, 0 -14" transform="rotate(90,152,138)"/><path d="M 145 159v 14h 7a 7 7, 0, 0, 0, 0 -14" transform="rotate(0,152,166)"/><circle cx="152" cy="194" r="7" transform="rotate(0,152,194)"/><circle cx="152" cy="236" r="7" transform="rotate(0,152,236)"/><circle cx="152" cy="264" r="7" transform="rotate(0,152,264)"/><path d="M 145 285v 14h 7a 7 7, 0, 0, 0, 0 -14" transform="rotate(180,152,292)"/><circle cx="152" cy="320" r="7" transform="rotate(0,152,320)"/><rect x="145" y="341" width="14" height="14" transform="rotate(0,152,348)"/><path d="M 145 355v 14h 14v -7a 7 7, 0, 0, 0, -7 -7" transform="rotate(90,152,362)"/><rect x="145" y="383" width="14" height="14" transform="rotate(0,152,390)"/><rect x="145" y="425" width="14" height="14" transform="rotate(0,152,432)"/><path d="M 145 467v 14h 7a 7 7, 0, 0, 0, 0 -14" transform="rotate(180,152,474)"/><rect x="159" y="19" width="14" height="14" transform="rotate(0,166,26)"/><rect x="159" y="33" width="14" height="14" transform="rotate(0,166,40)"/><path d="M 159 47v 14h 14v -7a 7 7, 0, 0, 0, -7 -7" transform="rotate(180,166,54)"/><path d="M 159 75v 14h 14v -7a 7 7, 0, 0, 0, -7 -7" transform="rotate(0,166,82)"/><rect x="159" y="89" width="14" height="14" transform="rotate(0,166,96)"/><rect x="159" y="103" width="14" height="14" transform="rotate(0,166,110)"/><rect x="159" y="117" width="14" height="14" transform="rotate(0,166,124)"/><circle cx="166" cy="152" r="7" transform="rotate(0,166,152)"/><circle cx="166" cy="180" r="7" transform="rotate(0,166,180)"/><path d="M 159 201v 14h 7a 7 7, 0, 0, 0, 0 -14" transform="rotate(180,166,208)"/><rect x="159" y="285" width="14" height="14" transform="rotate(0,166,292)"/><rect x="159" y="341" width="14" height="14" transform="rotate(0,166,348)"/><path d="M 159 369v 14h 7a 7 7, 0, 0, 0, 0 -14" transform="rotate(-90,166,376)"/><rect x="159" y="383" width="14" height="14" transform="rotate(0,166,390)"/><rect x="159" y="425" width="14" height="14" transform="rotate(0,166,432)"/><rect x="159" y="439" width="14" height="14" transform="rotate(0,166,446)"/><rect x="159" y="453" width="14" height="14" transform="rotate(0,166,460)"/><rect x="159" y="467" width="14" height="14" transform="rotate(0,166,474)"/><rect x="173" y="19" width="14" height="14" transform="rotate(0,180,26)"/><rect x="173" y="33" width="14" height="14" transform="rotate(0,180,40)"/><rect x="173" y="47" width="14" height="14" transform="rotate(0,180,54)"/><rect x="173" y="117" width="14" height="14" transform="rotate(0,180,124)"/><path d="M 173 131v 14h 7a 7 7, 0, 0, 0, 0 -14" transform="rotate(90,180,138)"/><path d="M 173 201v 14h 14v -7a 7 7, 0, 0, 0, -7 -7" transform="rotate(0,180,208)"/><rect x="173" y="215" width="14" height="14" transform="rotate(0,180,222)"/><rect x="173" y="229" width="14" height="14" transform="rotate(0,180,236)"/><rect x="173" y="243" width="14" height="14" transform="rotate(0,180,250)"/><path d="M 173 257v 14h 14v -7a 7 7, 0, 0, 0, -7 -7" transform="rotate(180,180,264)"/><path d="M 173 285v 14h 7a 7 7, 0, 0, 0, 0 -14" transform="rotate(0,180,292)"/><path d="M 173 313v 14h 7a 7 7, 0, 0, 0, 0 -14" transform="rotate(180,180,320)"/><path d="M 173 341v 14h 14v -7a 7 7, 0, 0, 0, -7 -7" transform="rotate(0,180,348)"/><path d="M 173 355v 14h 14v -7a 7 7, 0, 0, 0, -7 -7" transform="rotate(180,180,362)"/><rect x="173" y="383" width="14" height="14" transform="rotate(0,180,390)"/><rect x="173" y="397" width="14" height="14" transform="rotate(0,180,404)"/><rect x="173" y="411" width="14" height="14" transform="rotate(0,180,418)"/><path d="M 173 425v 14h 14v -7a 7 7, 0, 0, 0, -7 -7" transform="rotate(90,180,432)"/><path d="M 173 453v 14h 14v -7a 7 7, 0, 0, 0, -7 -7" transform="rotate(0,180,460)"/><rect x="173" y="467" width="14" height="14" transform="rotate(0,180,474)"/><rect x="187" y="19" width="14" height="14" transform="rotate(0,194,26)"/><path d="M 187 47v 14h 14v -7a 7 7, 0, 0, 0, -7 -7" transform="rotate(0,194,54)"/><path d="M 187 61v 14h 14v -7a 7 7, 0, 0, 0, -7 -7" transform="rotate(180,194,68)"/><path d="M 187 89v 14h 7a 7 7, 0, 0, 0, 0 -14" transform="rotate(-90,194,96)"/><rect x="187" y="103" width="14" height="14" transform="rotate(0,194,110)"/><path d="M 187 117v 14h 14v -7a 7 7, 0, 0, 0, -7 -7" transform="rotate(90,194,124)"/><path d="M 187 159v 14h 7a 7 7, 0, 0, 0, 0 -14" transform="rotate(-90,194,166)"/><path d="M 187 173v 14h 7a 7 7, 0, 0, 0, 0 -14" transform="rotate(90,194,180)"/><rect x="187" y="229" width="14" height="14" transform="rotate(0,194,236)"/><path d="M 187 257v 14h 7a 7 7, 0, 0, 0, 0 -14" transform="rotate(0,194,264)"/><rect x="187" y="313" width="14" height="14" transform="rotate(0,194,320)"/><rect x="187" y="355" width="14" height="14" transform="rotate(0,194,362)"/><rect x="187" y="383" width="14" height="14" transform="rotate(0,194,390)"/><rect x="187" y="467" width="14" height="14" transform="rotate(0,194,474)"/><path d="M 201 19v 14h 7a 7 7, 0, 0, 0, 0 -14" transform="rotate(0,208,26)"/><path d="M 201 61v 14h 14v -7a 7 7, 0, 0, 0, -7 -7" transform="rotate(0,208,68)"/><path d="M 201 75v 14h 7a 7 7, 0, 0, 0, 0 -14" transform="rotate(90,208,82)"/><path d="M 201 187v 14h 7a 7 7, 0, 0, 0, 0 -14" transform="rotate(180,208,194)"/><path d="M 201 215v 14h 7a 7 7, 0, 0, 0, 0 -14" transform="rotate(-90,208,222)"/><rect x="201" y="229" width="14" height="14" transform="rotate(0,208,236)"/><path d="M 201 313v 14h 7a 7 7, 0, 0, 0, 0 -14" transform="rotate(0,208,320)"/><path d="M 201 341v 14h 14v -7a 7 7, 0, 0, 0, -7 -7" transform="rotate(-90,208,348)"/><rect x="201" y="355" width="14" height="14" transform="rotate(0,208,362)"/><path d="M 201 383v 14h 14v -7a 7 7, 0, 0, 0, -7 -7" transform="rotate(0,208,390)"/><path d="M 201 397v 14h 7a 7 7, 0, 0, 0, 0 -14" transform="rotate(90,208,404)"/><path d="M 201 425v 14h 7a 7 7, 0, 0, 0, 0 -14" transform="rotate(-90,208,432)"/><rect x="201" y="439" width="14" height="14" transform="rotate(0,208,446)"/><rect x="201" y="453" width="14" height="14" transform="rotate(0,208,460)"/><rect x="201" y="467" width="14" height="14" transform="rotate(0,208,474)"/><path d="M 215 33v 14h 14v -7a 7 7, 0, 0, 0, -7 -7" transform="rotate(-90,222,40)"/><path d="M 215 47v 14h 7a 7 7, 0, 0, 0, 0 -14" transform="rotate(90,222,54)"/><path d="M 215 89v 14h 7a 7 7, 0, 0, 0, 0 -14" transform="rotate(-90,222,96)"/><rect x="215" y="103" width="14" height="14" transform="rotate(0,222,110)"/><path d="M 215 117v 14h 7a 7 7, 0, 0, 0, 0 -14" transform="rotate(90,222,124)"/><path d="M 215 159v 14h 7a 7 7, 0, 0, 0, 0 -14" transform="rotate(180,222,166)"/><path d="M 215 187v 14h 14v -7a 7 7, 0, 0, 0, -7 -7" transform="rotate(0,222,194)"/><path d="M 215 201v 14h 7a 7 7, 0, 0, 0, 0 -14" transform="rotate(90,222,208)"/><rect x="215" y="229" width="14" height="14" transform="rotate(0,222,236)"/><path d="M 215 257v 14h 7a 7 7, 0, 0, 0, 0 -14" transform="rotate(180,222,264)"/><circle cx="222" cy="292" r="7" transform="rotate(0,222,292)"/><path d="M 215 341v 14h 14v -7a 7 7, 0, 0, 0, -7 -7" transform="rotate(0,222,348)"/><rect x="215" y="355" width="14" height="14" transform="rotate(0,222,362)"/><circle cx="222" cy="418" r="7" transform="rotate(0,222,418)"/><path d="M 215 467v 14h 7a 7 7, 0, 0, 0, 0 -14" transform="rotate(0,222,474)"/><rect x="229" y="33" width="14" height="14" transform="rotate(0,236,40)"/><path d="M 229 61v 14h 7a 7 7, 0, 0, 0, 0 -14" transform="rotate(-90,236,68)"/><path d="M 229 75v 14h 7a 7 7, 0, 0, 0, 0 -14" transform="rotate(90,236,82)"/><path d="M 229 131v 14h 7a 7 7, 0, 0, 0, 0 -14" transform="rotate(-90,236,138)"/><rect x="229" y="145" width="14" height="14" transform="rotate(0,236,152)"/><rect x="229" y="159" width="14" height="14" transform="rotate(0,236,166)"/><path d="M 229 229v 14h 7a 7 7, 0, 0, 0, 0 -14" transform="rotate(0,236,236)"/><path d="M 229 257v 14h 14v -7a 7 7, 0, 0, 0, -7 -7" transform="rotate(0,236,264)"/><path d="M 229 271v 14h 7a 7 7, 0, 0, 0, 0 -14" transform="rotate(90,236,278)"/><circle cx="236" cy="334" r="7" transform="rotate(0,236,334)"/><rect x="229" y="355" width="14" height="14" transform="rotate(0,236,362)"/><rect x="229" y="369" width="14" height="14" transform="rotate(0,236,376)"/><path d="M 229 383v 14h 14v -7a 7 7, 0, 0, 0, -7 -7" transform="rotate(180,236,390)"/><path d="M 229 425v 14h 7a 7 7, 0, 0, 0, 0 -14" transform="rotate(180,236,432)"/><path d="M 243 19v 14h 14v -7a 7 7, 0, 0, 0, -7 -7" transform="rotate(-90,250,26)"/><rect x="243" y="33" width="14" height="14" transform="rotate(0,250,40)"/><path d="M 243 89v 14h 7a 7 7, 0, 0, 0, 0 -14" transform="rotate(-90,250,96)"/><path d="M 243 103v 14h 7a 7 7, 0, 0, 0, 0 -14" transform="rotate(90,250,110)"/><path d="M 243 159v 14h 7a 7 7, 0, 0, 0, 0 -14" transform="rotate(0,250,166)"/><circle cx="250" cy="194" r="7" transform="rotate(0,250,194)"/><path d="M 243 243v 14h 7a 7 7, 0, 0, 0, 0 -14" transform="rotate(180,250,250)"/><path d="M 243 285v 14h 14v -7a 7 7, 0, 0, 0, -7 -7" transform="rotate(-90,250,292)"/><path d="M 243 299v 14h 14v -7a 7 7, 0, 0, 0, -7 -7" transform="rotate(180,250,306)"/><path d="M 243 341v 14h 14v -7a 7 7, 0, 0, 0, -7 -7" transform="rotate(-90,250,348)"/><rect x="243" y="355" width="14" height="14" transform="rotate(0,250,362)"/><rect x="243" y="383" width="14" height="14" transform="rotate(0,250,390)"/><path d="M 243 397v 14h 7a 7 7, 0, 0, 0, 0 -14" transform="rotate(90,250,404)"/><rect x="243" y="425" width="14" height="14" transform="rotate(0,250,432)"/><circle cx="250" cy="460" r="7" transform="rotate(0,250,460)"/><rect x="257" y="19" width="14" height="14" transform="rotate(0,264,26)"/><path d="M 257 33v 14h 14v -7a 7 7, 0, 0, 0, -7 -7" transform="rotate(90,264,40)"/><circle cx="264" cy="68" r="7" transform="rotate(0,264,68)"/><path d="M 257 131v 14h 14v -7a 7 7, 0, 0, 0, -7 -7" transform="rotate(-90,264,138)"/><path d="M 257 145v 14h 14v -7a 7 7, 0, 0, 0, -7 -7" transform="rotate(180,264,152)"/><path d="M 257 173v 14h 7a 7 7, 0, 0, 0, 0 -14" transform="rotate(180,264,180)"/><rect x="257" y="243" width="14" height="14" transform="rotate(0,264,250)"/><rect x="257" y="285" width="14" height="14" transform="rotate(0,264,292)"/><path d="M 257 299v 14h 14v -7a 7 7, 0, 0, 0, -7 -7" transform="rotate(90,264,306)"/><path d="M 257 327v 14h 14v -7a 7 7, 0, 0, 0, -7 -7" transform="rotate(-90,264,334)"/><rect x="257" y="341" width="14" height="14" transform="rotate(0,264,348)"/><rect x="257" y="355" width="14" height="14" transform="rotate(0,264,362)"/><rect x="257" y="369" width="14" height="14" transform="rotate(0,264,376)"/><path d="M 257 383v 14h 14v -7a 7 7, 0, 0, 0, -7 -7" transform="rotate(90,264,390)"/><rect x="257" y="425" width="14" height="14" transform="rotate(0,264,432)"/><path d="M 257 467v 14h 7a 7 7, 0, 0, 0, 0 -14" transform="rotate(180,264,474)"/><path d="M 271 19v 14h 7a 7 7, 0, 0, 0, 0 -14" transform="rotate(0,278,26)"/><path d="M 271 75v 14h 14v -7a 7 7, 0, 0, 0, -7 -7" transform="rotate(-90,278,82)"/><rect x="271" y="89" width="14" height="14" transform="rotate(0,278,96)"/><path d="M 271 103v 14h 7a 7 7, 0, 0, 0, 0 -14" transform="rotate(90,278,110)"/><rect x="271" y="131" width="14" height="14" transform="rotate(0,278,138)"/><rect x="271" y="145" width="14" height="14" transform="rotate(0,278,152)"/><rect x="271" y="159" width="14" height="14" transform="rotate(0,278,166)"/><rect x="271" y="173" width="14" height="14" transform="rotate(0,278,180)"/><path d="M 271 187v 14h 7a 7 7, 0, 0, 0, 0 -14" transform="rotate(90,278,194)"/><path d="M 271 215v 14h 7a 7 7, 0, 0, 0, 0 -14" transform="rotate(180,278,222)"/><path d="M 271 243v 14h 14v -7a 7 7, 0, 0, 0, -7 -7" transform="rotate(0,278,250)"/><path d="M 271 257v 14h 7a 7 7, 0, 0, 0, 0 -14" transform="rotate(90,278,264)"/><path d="M 271 285v 14h 7a 7 7, 0, 0, 0, 0 -14" transform="rotate(0,278,292)"/><path d="M 271 313v 14h 7a 7 7, 0, 0, 0, 0 -14" transform="rotate(-90,278,320)"/><rect x="271" y="327" width="14" height="14" transform="rotate(0,278,334)"/><path d="M 271 341v 14h 14v -7a 7 7, 0, 0, 0, -7 -7" transform="rotate(90,278,348)"/><rect x="271" y="369" width="14" height="14" transform="rotate(0,278,376)"/><circle cx="278" cy="404" r="7" transform="rotate(0,278,404)"/><rect x="271" y="425" width="14" height="14" transform="rotate(0,278,432)"/><path d="M 271 439v 14h 7a 7 7, 0, 0, 0, 0 -14" transform="rotate(90,278,446)"/><rect x="271" y="467" width="14" height="14" transform="rotate(0,278,474)"/><rect x="285" y="75" width="14" height="14" transform="rotate(0,292,82)"/><path d="M 285 89v 14h 14v -7a 7 7, 0, 0, 0, -7 -7" transform="rotate(90,292,96)"/><path d="M 285 117v 14h 14v -7a 7 7, 0, 0, 0, -7 -7" transform="rotate(-90,292,124)"/><path d="M 285 131v 14h 14v -7a 7 7, 0, 0, 0, -7 -7" transform="rotate(90,292,138)"/><rect x="285" y="159" width="14" height="14" transform="rotate(0,292,166)"/><path d="M 285 215v 14h 14v -7a 7 7, 0, 0, 0, -7 -7" transform="rotate(0,292,222)"/><path d="M 285 229v 14h 14v -7a 7 7, 0, 0, 0, -7 -7" transform="rotate(180,292,236)"/><path d="M 285 271v 14h 7a 7 7, 0, 0, 0, 0 -14" transform="rotate(180,292,278)"/><path d="M 285 299v 14h 7a 7 7, 0, 0, 0, 0 -14" transform="rotate(180,292,306)"/><rect x="285" y="327" width="14" height="14" transform="rotate(0,292,334)"/><path d="M 285 355v 14h 7a 7 7, 0, 0, 0, 0 -14" transform="rotate(-90,292,362)"/><path d="M 285 369v 14h 14v -7a 7 7, 0, 0, 0, -7 -7" transform="rotate(90,292,376)"/><path d="M 285 411v 14h 7a 7 7, 0, 0, 0, 0 -14" transform="rotate(-90,292,418)"/><path d="M 285 425v 14h 14v -7a 7 7, 0, 0, 0, -7 -7" transform="rotate(90,292,432)"/><path d="M 285 453v 14h 7a 7 7, 0, 0, 0, 0 -14" transform="rotate(-90,292,460)"/><path d="M 285 467v 14h 14v -7a 7 7, 0, 0, 0, -7 -7" transform="rotate(90,292,474)"/><path d="M 299 19v 14h 7a 7 7, 0, 0, 0, 0 -14" transform="rotate(-90,306,26)"/><path d="M 299 33v 14h 7a 7 7, 0, 0, 0, 0 -14" transform="rotate(90,306,40)"/><path d="M 299 61v 14h 14v -7a 7 7, 0, 0, 0, -7 -7" transform="rotate(-90,306,68)"/><path d="M 299 75v 14h 14v -7a 7 7, 0, 0, 0, -7 -7" transform="rotate(90,306,82)"/><path d="M 299 103v 14h 7a 7 7, 0, 0, 0, 0 -14" transform="rotate(-90,306,110)"/><rect x="299" y="117" width="14" height="14" transform="rotate(0,306,124)"/><path d="M 299 145v 14h 7a 7 7, 0, 0, 0, 0 -14" transform="rotate(-90,306,152)"/><path d="M 299 159v 14h 14v -7a 7 7, 0, 0, 0, -7 -7" transform="rotate(90,306,166)"/><path d="M 299 229v 14h 7a 7 7, 0, 0, 0, 0 -14" transform="rotate(0,306,236)"/><rect x="299" y="271" width="14" height="14" transform="rotate(0,306,278)"/><rect x="299" y="285" width="14" height="14" transform="rotate(0,306,292)"/><rect x="299" y="299" width="14" height="14" transform="rotate(0,306,306)"/><rect x="299" y="313" width="14" height="14" transform="rotate(0,306,320)"/><rect x="299" y="327" width="14" height="14" transform="rotate(0,306,334)"/><path d="M 299 341v 14h 14v -7a 7 7, 0, 0, 0, -7 -7" transform="rotate(180,306,348)"/><path d="M 299 383v 14h 14v -7a 7 7, 0, 0, 0, -7 -7" transform="rotate(-90,306,390)"/><path d="M 299 397v 14h 14v -7a 7 7, 0, 0, 0, -7 -7" transform="rotate(180,306,404)"/><rect x="313" y="61" width="14" height="14" transform="rotate(0,320,68)"/><path d="M 313 89v 14h 7a 7 7, 0, 0, 0, 0 -14" transform="rotate(180,320,96)"/><rect x="313" y="117" width="14" height="14" transform="rotate(0,320,124)"/><path d="M 313 131v 14h 7a 7 7, 0, 0, 0, 0 -14" transform="rotate(90,320,138)"/><path d="M 313 173v 14h 7a 7 7, 0, 0, 0, 0 -14" transform="rotate(-90,320,180)"/><rect x="313" y="187" width="14" height="14" transform="rotate(0,320,194)"/><rect x="313" y="201" width="14" height="14" transform="rotate(0,320,208)"/><path d="M 313 215v 14h 7a 7 7, 0, 0, 0, 0 -14" transform="rotate(90,320,222)"/><rect x="313" y="271" width="14" height="14" transform="rotate(0,320,278)"/><rect x="313" y="299" width="14" height="14" transform="rotate(0,320,306)"/><path d="M 313 327v 14h 14v -7a 7 7, 0, 0, 0, -7 -7" transform="rotate(0,320,334)"/><rect x="313" y="341" width="14" height="14" transform="rotate(0,320,348)"/><path d="M 313 355v 14h 14v -7a 7 7, 0, 0, 0, -7 -7" transform="rotate(180,320,362)"/><rect x="313" y="383" width="14" height="14" transform="rotate(0,320,390)"/><rect x="313" y="397" width="14" height="14" transform="rotate(0,320,404)"/><path d="M 313 439v 14h 7a 7 7, 0, 0, 0, 0 -14" transform="rotate(180,320,446)"/><path d="M 313 467v 14h 7a 7 7, 0, 0, 0, 0 -14" transform="rotate(180,320,474)"/><path d="M 327 19v 14h 7a 7 7, 0, 0, 0, 0 -14" transform="rotate(-90,334,26)"/><rect x="327" y="33" width="14" height="14" transform="rotate(0,334,40)"/><rect x="327" y="47" width="14" height="14" transform="rotate(0,334,54)"/><rect x="327" y="61" width="14" height="14" transform="rotate(0,334,68)"/><path d="M 327 89v 14h 14v -7a 7 7, 0, 0, 0, -7 -7" transform="rotate(0,334,96)"/><rect x="327" y="103" width="14" height="14" transform="rotate(0,334,110)"/><path d="M 327 117v 14h 14v -7a 7 7, 0, 0, 0, -7 -7" transform="rotate(90,334,124)"/><path d="M 327 159v 14h 7a 7 7, 0, 0, 0, 0 -14" transform="rotate(180,334,166)"/><path d="M 327 201v 14h 7a 7 7, 0, 0, 0, 0 -14" transform="rotate(0,334,208)"/><path d="M 327 257v 14h 7a 7 7, 0, 0, 0, 0 -14" transform="rotate(-90,334,264)"/><rect x="327" y="271" width="14" height="14" transform="rotate(0,334,278)"/><rect x="327" y="299" width="14" height="14" transform="rotate(0,334,306)"/><rect x="327" y="341" width="14" height="14" transform="rotate(0,334,348)"/><rect x="327" y="355" width="14" height="14" transform="rotate(0,334,362)"/><path d="M 327 383v 14h 14v -7a 7 7, 0, 0, 0, -7 -7" transform="rotate(0,334,390)"/><rect x="327" y="397" width="14" height="14" transform="rotate(0,334,404)"/><path d="M 327 439v 14h 7a 7 7, 0, 0, 0, 0 -14" transform="rotate(0,334,446)"/><path d="M 327 467v 14h 7a 7 7, 0, 0, 0, 0 -14" transform="rotate(0,334,474)"/><rect x="341" y="61" width="14" height="14" transform="rotate(0,348,68)"/><path d="M 341 75v 14h 7a 7 7, 0, 0, 0, 0 -14" transform="rotate(90,348,82)"/><path d="M 341 159v 14h 7a 7 7, 0, 0, 0, 0 -14" transform="rotate(0,348,166)"/><path d="M 341 187v 14h 7a 7 7, 0, 0, 0, 0 -14" transform="rotate(180,348,194)"/><path d="M 341 229v 14h 14v -7a 7 7, 0, 0, 0, -7 -7" transform="rotate(-90,348,236)"/><path d="M 341 243v 14h 14v -7a 7 7, 0, 0, 0, -7 -7" transform="rotate(180,348,250)"/><path d="M 341 271v 14h 14v -7a 7 7, 0, 0, 0, -7 -7" transform="rotate(0,348,278)"/><rect x="341" y="285" width="14" height="14" transform="rotate(0,348,292)"/><path d="M 341 299v 14h 14v -7a 7 7, 0, 0, 0, -7 -7" transform="rotate(90,348,306)"/><path d="M 341 327v 14h 7a 7 7, 0, 0, 0, 0 -14" transform="rotate(-90,348,334)"/><rect x="341" y="341" width="14" height="14" transform="rotate(0,348,348)"/><rect x="341" y="355" width="14" height="14" transform="rotate(0,348,362)"/><rect x="341" y="397" width="14" height="14" transform="rotate(0,348,404)"/><path d="M 341 425v 14h 7a 7 7, 0, 0, 0, 0 -14" transform="rotate(180,348,432)"/><circle cx="348" cy="460" r="7" transform="rotate(0,348,460)"/><path d="M 355 19v 14h 7a 7 7, 0, 0, 0, 0 -14" transform="rotate(-90,362,26)"/><rect x="355" y="33" width="14" height="14" transform="rotate(0,362,40)"/><rect x="355" y="47" width="14" height="14" transform="rotate(0,362,54)"/><path d="M 355 61v 14h 14v -7a 7 7, 0, 0, 0, -7 -7" transform="rotate(90,362,68)"/><path d="M 355 89v 14h 7a 7 7, 0, 0, 0, 0 -14" transform="rotate(-90,362,96)"/><path d="M 355 103v 14h 7a 7 7, 0, 0, 0, 0 -14" transform="rotate(90,362,110)"/><path d="M 355 131v 14h 14v -7a 7 7, 0, 0, 0, -7 -7" transform="rotate(-90,362,138)"/><path d="M 355 145v 14h 7a 7 7, 0, 0, 0, 0 -14" transform="rotate(90,362,152)"/><path d="M 355 187v 14h 7a 7 7, 0, 0, 0, 0 -14" transform="rotate(0,362,194)"/><path d="M 355 229v 14h 14v -7a 7 7, 0, 0, 0, -7 -7" transform="rotate(0,362,236)"/><rect x="355" y="243" width="14" height="14" transform="rotate(0,362,250)"/><rect x="355" y="355" width="14" height="14" transform="rotate(0,362,362)"/><rect x="355" y="369" width="14" height="14" transform="rotate(0,362,376)"/><rect x="355" y="383" width="14" height="14" transform="rotate(0,362,390)"/><rect x="355" y="397" width="14" height="14" transform="rotate(0,362,404)"/><rect x="355" y="411" width="14" height="14" transform="rotate(0,362,418)"/><path d="M 355 425v 14h 14v -7a 7 7, 0, 0, 0, -7 -7" transform="rotate(90,362,432)"/><path d="M 355 467v 14h 7a 7 7, 0, 0, 0, 0 -14" transform="rotate(180,362,474)"/><path d="M 369 131v 14h 7a 7 7, 0, 0, 0, 0 -14" transform="rotate(0,376,138)"/><path d="M 369 159v 14h 7a 7 7, 0, 0, 0, 0 -14" transform="rotate(180,376,166)"/><circle cx="376" cy="222" r="7" transform="rotate(0,376,222)"/><rect x="369" y="243" width="14" height="14" transform="rotate(0,376,250)"/><path d="M 369 285v 14h 14v -7a 7 7, 0, 0, 0, -7 -7" transform="rotate(-90,376,292)"/><rect x="369" y="299" width="14" height="14" transform="rotate(0,376,306)"/><path d="M 369 313v 14h 7a 7 7, 0, 0, 0, 0 -14" transform="rotate(90,376,320)"/><rect x="369" y="355" width="14" height="14" transform="rotate(0,376,362)"/><rect x="369" y="411" width="14" height="14" transform="rotate(0,376,418)"/><rect x="369" y="467" width="14" height="14" transform="rotate(0,376,474)"/><rect x="383" y="159" width="14" height="14" transform="rotate(0,390,166)"/><path d="M 383 187v 14h 7a 7 7, 0, 0, 0, 0 -14" transform="rotate(180,390,194)"/><rect x="383" y="243" width="14" height="14" transform="rotate(0,390,250)"/><rect x="383" y="285" width="14" height="14" transform="rotate(0,390,292)"/><rect x="383" y="299" width="14" height="14" transform="rotate(0,390,306)"/><rect x="383" y="355" width="14" height="14" transform="rotate(0,390,362)"/><circle cx="390" cy="390" r="7" transform="rotate(0,390,390)"/><rect x="383" y="411" width="14" height="14" transform="rotate(0,390,418)"/><rect x="383" y="425" width="14" height="14" transform="rotate(0,390,432)"/><path d="M 383 439v 14h 7a 7 7, 0, 0, 0, 0 -14" transform="rotate(90,390,446)"/><path d="M 383 467v 14h 7a 7 7, 0, 0, 0, 0 -14" transform="rotate(0,390,474)"/><path d="M 397 145v 14h 7a 7 7, 0, 0, 0, 0 -14" transform="rotate(-90,404,152)"/><path d="M 397 159v 14h 14v -7a 7 7, 0, 0, 0, -7 -7" transform="rotate(90,404,166)"/><path d="M 397 187v 14h 14v -7a 7 7, 0, 0, 0, -7 -7" transform="rotate(0,404,194)"/><rect x="397" y="201" width="14" height="14" transform="rotate(0,404,208)"/><path d="M 397 215v 14h 14v -7a 7 7, 0, 0, 0, -7 -7" transform="rotate(180,404,222)"/><path d="M 397 243v 14h 7a 7 7, 0, 0, 0, 0 -14" transform="rotate(0,404,250)"/><path d="M 397 285v 14h 14v -7a 7 7, 0, 0, 0, -7 -7" transform="rotate(0,404,292)"/><rect x="397" y="299" width="14" height="14" transform="rotate(0,404,306)"/><path d="M 397 313v 14h 14v -7a 7 7, 0, 0, 0, -7 -7" transform="rotate(180,404,320)"/><path d="M 397 341v 14h 14v -7a 7 7, 0, 0, 0, -7 -7" transform="rotate(-90,404,348)"/><rect x="397" y="355" width="14" height="14" transform="rotate(0,404,362)"/><rect x="397" y="411" width="14" height="14" transform="rotate(0,404,418)"/><path d="M 397 425v 14h 14v -7a 7 7, 0, 0, 0, -7 -7" transform="rotate(90,404,432)"/><rect x="411" y="215" width="14" height="14" transform="rotate(0,418,222)"/><path d="M 411 229v 14h 14v -7a 7 7, 0, 0, 0, -7 -7" transform="rotate(180,418,236)"/><circle cx="418" cy="264" r="7" transform="rotate(0,418,264)"/><rect x="411" y="313" width="14" height="14" transform="rotate(0,418,320)"/><path d="M 411 341v 14h 14v -7a 7 7, 0, 0, 0, -7 -7" transform="rotate(0,418,348)"/><rect x="411" y="355" width="14" height="14" transform="rotate(0,418,362)"/><rect x="411" y="369" width="14" height="14" transform="rotate(0,418,376)"/><rect x="411" y="383" width="14" height="14" transform="rotate(0,418,390)"/><rect x="411" y="397" width="14" height="14" transform="rotate(0,418,404)"/><rect x="411" y="411" width="14" height="14" transform="rotate(0,418,418)"/><circle cx="432" cy="152" r="7" transform="rotate(0,432,152)"/><path d="M 425 187v 14h 7a 7 7, 0, 0, 0, 0 -14" transform="rotate(-90,432,194)"/><rect x="425" y="201" width="14" height="14" transform="rotate(0,432,208)"/><rect x="425" y="215" width="14" height="14" transform="rotate(0,432,222)"/><rect x="425" y="229" width="14" height="14" transform="rotate(0,432,236)"/><path d="M 425 243v 14h 7a 7 7, 0, 0, 0, 0 -14" transform="rotate(90,432,250)"/><circle cx="432" cy="278" r="7" transform="rotate(0,432,278)"/><path d="M 425 313v 14h 7a 7 7, 0, 0, 0, 0 -14" transform="rotate(0,432,320)"/><rect x="425" y="369" width="14" height="14" transform="rotate(0,432,376)"/><rect x="425" y="397" width="14" height="14" transform="rotate(0,432,404)"/><rect x="425" y="411" width="14" height="14" transform="rotate(0,432,418)"/><rect x="425" y="425" width="14" height="14" transform="rotate(0,432,432)"/><path d="M 425 439v 14h 7a 7 7, 0, 0, 0, 0 -14" transform="rotate(90,432,446)"/><path d="M 425 467v 14h 7a 7 7, 0, 0, 0, 0 -14" transform="rotate(180,432,474)"/><path d="M 439 131v 14h 7a 7 7, 0, 0, 0, 0 -14" transform="rotate(180,446,138)"/><rect x="439" y="215" width="14" height="14" transform="rotate(0,446,222)"/><path d="M 439 229v 14h 14v -7a 7 7, 0, 0, 0, -7 -7" transform="rotate(90,446,236)"/><circle cx="446" cy="264" r="7" transform="rotate(0,446,264)"/><circle cx="446" cy="292" r="7" transform="rotate(0,446,292)"/><circle cx="446" cy="348" r="7" transform="rotate(0,446,348)"/><path d="M 439 369v 14h 7a 7 7, 0, 0, 0, 0 -14" transform="rotate(0,446,376)"/><rect x="439" y="397" width="14" height="14" transform="rotate(0,446,404)"/><rect x="439" y="411" width="14" height="14" transform="rotate(0,446,418)"/><rect x="439" y="425" width="14" height="14" transform="rotate(0,446,432)"/><path d="M 439 453v 14h 7a 7 7, 0, 0, 0, 0 -14" transform="rotate(-90,446,460)"/><path d="M 439 467v 14h 14v -7a 7 7, 0, 0, 0, -7 -7" transform="rotate(90,446,474)"/><path d="M 453 131v 14h 14v -7a 7 7, 0, 0, 0, -7 -7" transform="rotate(0,460,138)"/><rect x="453" y="145" width="14" height="14" transform="rotate(0,460,152)"/><path d="M 453 159v 14h 14v -7a 7 7, 0, 0, 0, -7 -7" transform="rotate(180,460,166)"/><path d="M 453 201v 14h 14v -7a 7 7, 0, 0, 0, -7 -7" transform="rotate(-90,460,208)"/><path d="M 453 215v 14h 14v -7a 7 7, 0, 0, 0, -7 -7" transform="rotate(90,460,222)"/><path d="M 453 243v 14h 7a 7 7, 0, 0, 0, 0 -14" transform="rotate(180,460,250)"/><path d="M 453 355v 14h 7a 7 7, 0, 0, 0, 0 -14" transform="rotate(180,460,362)"/><rect x="453" y="397" width="14" height="14" transform="rotate(0,460,404)"/><rect x="453" y="411" width="14" height="14" transform="rotate(0,460,418)"/><path d="M 453 425v 14h 14v -7a 7 7, 0, 0, 0, -7 -7" transform="rotate(90,460,432)"/><path d="M 467 159v 14h 14v -7a 7 7, 0, 0, 0, -7 -7" transform="rotate(0,474,166)"/><rect x="467" y="173" width="14" height="14" transform="rotate(0,474,180)"/><rect x="467" y="187" width="14" height="14" transform="rotate(0,474,194)"/><path d="M 467 201v 14h 14v -7a 7 7, 0, 0, 0, -7 -7" transform="rotate(90,474,208)"/><path d="M 467 243v 14h 7a 7 7, 0, 0, 0, 0 -14" transform="rotate(0,474,250)"/><path d="M 467 271v 14h 7a 7 7, 0, 0, 0, 0 -14" transform="rotate(-90,474,278)"/><rect x="467" y="285" width="14" height="14" transform="rotate(0,474,292)"/><path d="M 467 299v 14h 7a 7 7, 0, 0, 0, 0 -14" transform="rotate(90,474,306)"/><circle cx="474" cy="334" r="7" transform="rotate(0,474,334)"/><path d="M 467 355v 14h 7a 7 7, 0, 0, 0, 0 -14" transform="rotate(0,474,362)"/><path d="M 467 383v 14h 7a 7 7, 0, 0, 0, 0 -14" transform="rotate(-90,474,390)"/><rect x="467" y="397" width="14" height="14" transform="rotate(0,474,404)"/><path d="M 467 411v 14h 14v -7a 7 7, 0, 0, 0, -7 -7" transform="rotate(90,474,418)"/><circle cx="474" cy="474" r="7" transform="rotate(0,474,474)"/></clipPath><clipPath id="clip-path-corners-square-color-0-0"><path clip-rule="evenodd" d="M 19 54v 28a 35 35, 0, 0, 0, 35 35h 28a 35 35, 0, 0, 0, 35 -35v -28a 35 35, 0, 0, 0, -35 -35h -28a 35 35, 0, 0, 0, -35 35M 54 33h 28a 21 21, 0, 0, 1, 21 21v 28a 21 21, 0, 0, 1, -21 21h -28a 21 21, 0, 0, 1, -21 -21v -28a 21 21, 0, 0, 1, 21 -21" transform="rotate(0,68,68)"/></clipPath><clipPath id="clip-path-corners-dot-color-0-0"><circle cx="68" cy="68" r="21" transform="rotate(0,68,68)"/></clipPath><clipPath id="clip-path-corners-square-color-1-0"><path clip-rule="evenodd" d="M 383 54v 28a 35 35, 0, 0, 0, 35 35h 28a 35 35, 0, 0, 0, 35 -35v -28a 35 35, 0, 0, 0, -35 -35h -28a 35 35, 0, 0, 0, -35 35M 418 33h 28a 21 21, 0, 0, 1, 21 21v 28a 21 21, 0, 0, 1, -21 21h -28a 21 21, 0, 0, 1, -21 -21v -28a 21 21, 0, 0, 1, 21 -21" transform="rotate(90,432,68)"/></clipPath><clipPath id="clip-path-corners-dot-color-1-0"><circle cx="432" cy="68" r="21" transform="rotate(90,432,68)"/></clipPath><clipPath id="clip-path-corners-square-color-0-1"><path clip-rule="evenodd" d="M 19 418v 28a 35 35, 0, 0, 0, 35 35h 28a 35 35, 0, 0, 0, 35 -35v -28a 35 35, 0, 0, 0, -35 -35h -28a 35 35, 0, 0, 0, -35 35M 54 397h 28a 21 21, 0, 0, 1, 21 21v 28a 21 21, 0, 0, 1, -21 21h -28a 21 21, 0, 0, 1, -21 -21v -28a 21 21, 0, 0, 1, 21 -21" transform="rotate(-90,68,432)"/></clipPath><clipPath id="clip-path-corners-dot-color-0-1"><circle cx="68" cy="432" r="21" transform="rotate(-90,68,432)"/></clipPath></defs><rect x="0" y="0" height="500" width="500" clip-path="url('#clip-path-background-color')" fill="#fff"/><rect x="0" y="0" height="500" width="500" clip-path="url('#clip-path-dot-color')" fill="#000000"/><rect x="19" y="19" height="98" width="98" clip-path="url('#clip-path-corners-square-color-0-0')" fill="#000000"/><rect x="47" y="47" height="42" width="42" clip-path="url('#clip-path-corners-dot-color-0-0')" fill="#000000"/><rect x="383" y="19" height="98" width="98" clip-path="url('#clip-path-corners-square-color-1-0')" fill="#000000"/><rect x="411" y="47" height="42" width="42" clip-path="url('#clip-path-corners-dot-color-1-0')" fill="#000000"/><rect x="19" y="383" height="98" width="98" clip-path="url('#clip-path-corners-square-color-0-1')" fill="#000000"/><rect x="47" y="411" height="42" width="42" clip-path="url('#clip-path-corners-dot-color-0-1')" fill="#000000"/></svg>